<?xml version="1.0" standalone="no"?>
<!DOCTYPE svg PUBLIC "-//W3C//DTD SVG 1.1//EN" "http://www.w3.org/Graphics/SVG/1.1/DTD/svg11.dtd" >
<svg xmlns="http://www.w3.org/2000/svg">
<metadata>
This is a custom SVG webfont generated by Font Squirrel.
Copyright   : Copyright  LDO Fonts 2004 All rights reserved
Designer    : Luke Owens
Foundry     : LDO Fonts
</metadata>
<defs>
<font id="WaukeganLDORegular" horiz-adv-x="636" >
<font-face units-per-em="2048" ascent="1638" descent="-410" />
<missing-glyph horiz-adv-x="569" />
<glyph unicode=" "  horiz-adv-x="569" />
<glyph unicode="&#x09;" horiz-adv-x="569" />
<glyph unicode="&#xa0;" horiz-adv-x="569" />
<glyph unicode="!" horiz-adv-x="301" d="M61 1366h168l-20 -989h-131zM70 0v186h161v-186h-161z" />
<glyph unicode="&#x22;" horiz-adv-x="622" d="M74 1366h170l-27 -547h-119zM377 1366h170l-25 -547h-121z" />
<glyph unicode="#" horiz-adv-x="1105" d="M61 475l13 82h254l32 229h-256l13 84h254l53 375h86l-53 -375h241l52 375h86l-54 -375h262l-12 -84h-260l-33 -229h260l-10 -82h-262l-57 -407h-84l57 407h-242l-57 -407h-86l57 407h-254zM414 557h239l33 229h-242z" />
<glyph unicode="$" horiz-adv-x="1239" d="M47 379v47h152q0 -207 60 -252t257 -49h49v504q-201 0 -353.5 50t-152.5 298q0 252 123 320.5t340 68.5h43v127h115v-127q231 0 356 -56.5t125 -326.5h-149q0 145 -35 197.5t-191 52.5h-106v-473q229 0 370.5 -52.5t141.5 -322.5q0 -250 -121 -314.5t-348 -68.5h-11h-10 q-6 -2 -11 -2h-11v-154h-115v154q-233 0 -373.5 47t-144.5 332zM213 1016q0 -174 70.5 -215t216.5 -41h65v475h-67q-131 0 -208 -28.5t-77 -190.5zM680 125q12 -2 26 -2h27q145 0 226 42t81 202q0 186 -78.5 222t-246.5 38h-35v-502z" />
<glyph unicode="%" horiz-adv-x="1648" d="M55 963v69q0 158 38 248t218 90h105q133 0 183 -58.5t50 -197.5v-22v-23q-2 -10 -2 -20v-21v-21q0 -11 2 -24v-22v-25q0 -145 -56 -201.5t-214 -56.5q-174 0 -249 49.5t-75 235.5zM141 1085q0 -10 2 -20v-19v-18l2 -127q2 -106 50.5 -124.5t136.5 -20.5h10h12 q100 0 152.5 21.5t52.5 133.5v226q0 113 -41 135t-121 22h-100h-9h-12q-29 -2 -55 -8t-43 -22q-18 -20 -26.5 -53t-10.5 -68v-18v-17v-23zM311 0l922 1366h98l-925 -1366h-95zM995 281v69q0 158 39 248t217 90q170 0 254 -38t84 -228v-42q0 -22 2 -42v-42v-42v-9v-9 q-2 -45 -9 -87.5t-30 -74.5q-29 -45 -75.5 -59.5t-96.5 -16.5q-18 -2 -37 -2h-34q-166 0 -240 45t-74 240zM1083 407q0 -11 2 -22v-20v-19v-127q6 -109 52.5 -127t126.5 -18h15h15q100 0 152.5 21.5t52.5 133.5v226q0 113 -41 135t-119 22h-100h-12h-15q-27 -2 -53 -8 t-41 -22q-18 -20 -25.5 -56.5t-9.5 -72.5v-12v-11v-23z" />
<glyph unicode="&#x26;" horiz-adv-x="1411" d="M59 434v38q0 19 2 38q4 51 18.5 99t47.5 87q31 37 73 51.5t85 24.5h3q1 0 7 2t18.5 4t24.5 6q-23 18 -41 36t-31 34q-31 35 -41 76t-10 108q0 213 113.5 263.5t292.5 50.5q199 0 298 -56.5t99 -275.5v-37q0 -18 -2 -37h-150q-2 12 -2 25v24q-2 166 -52 195t-212 29 q-92 0 -161.5 -20.5t-69.5 -135.5q0 -57 13 -94t44 -70q10 -12 24.5 -25.5t32.5 -27.5l512 -428q2 23 3 47t1 49v22v23q-2 10 -2 22v21h152v-30q0 -15 2 -29v-30v-30q0 -23 -1 -45t-3 -45t-5 -45t-7 -45l239 -197l-86 -106l-201 166q-53 -113 -155.5 -142.5t-212.5 -33.5 h-40h-38q-274 0 -428 56t-154 388zM213 436q0 -193 50 -255t249 -62h133h52q28 0 55 4q72 6 134 33.5t81 103.5l-533 440q-18 -4 -36.5 -9t-32.5 -9q-86 -23 -119 -66t-33 -180z" />
<glyph unicode="'" horiz-adv-x="303" d="M63 1366h175l-27 -547h-123z" />
<glyph unicode="(" horiz-adv-x="464" d="M66 379v75v74v340q0 225 51 367.5t311 142.5v-129q-150 0 -175.5 -70.5t-27.5 -183.5v-11v-11v-22v-23v-199l4 -555v-12v-15q2 -94 24.5 -164.5t145.5 -70.5h29v-129q-6 2 -11 2t-9 -2h-12h-11q-217 0 -264 133t-51 313q-2 37 -3 75t-1 75z" />
<glyph unicode=")" horiz-adv-x="466" d="M37 -90q94 2 140 32.5t54 127.5q2 20 3.5 40.5t3.5 41.5v38v41q2 49 2 99v100l-7 555q0 106 -21.5 185t-148.5 79l-26 -2v129h11q5 0 11 2h10h11q217 0 261 -129t54 -309v-5v-5q2 -63 3 -126t1 -124v-126v-126v-137v-3v-3q0 -188 -42 -345t-283 -157l-37 -2v129z" />
<glyph unicode="*" horiz-adv-x="784" d="M27 1077l34 97l281 -103v295h100v-295l279 105l35 -105l-281 -100l168 -240l-80 -59l-170 248l-182 -248l-80 59l174 240z" />
<glyph unicode="+" horiz-adv-x="942" d="M6 655v84h420v396h88v-396h422v-84h-422v-395h-88v395h-420z" />
<glyph unicode="," horiz-adv-x="321" d="M68 -123q53 4 71.5 25.5t18.5 74.5v13q0 6 -2 10h-68v186h162v-200q0 -82 -25.5 -133.5t-115.5 -51.5h-12h-9q-4 2 -9 2h-11v74z" />
<glyph unicode="-" d="M80 432v133h475v-133h-475z" />
<glyph unicode="." horiz-adv-x="329" d="M80 0v186h162v-186h-162z" />
<glyph unicode="/" horiz-adv-x="1175" d="M4 -201l1053 1567h114l-1056 -1567h-111z" />
<glyph unicode="0" horiz-adv-x="1306" d="M72 600v100q0 78 1 154t5 152q8 109 62.5 199.5t154.5 133.5q47 20 97 25.5t102 7.5q20 0 39.5 1t39.5 1h38h40q309 0 439.5 -73.5t142.5 -415.5v-48q0 -24 2 -49v-49v-49q0 -70 -1 -139.5t-3 -140.5q-6 -193 -96.5 -298.5t-290.5 -115.5q-39 -4 -79 -4h-81l-109 -2 q-199 2 -338 66.5t-157 295.5q-6 61 -7 123t-1 125zM227 690l2 -256q4 -119 46 -208t182 -95q29 0 58.5 -1t57.5 -3h16h15q35 -2 72 -3t74 -1q164 0 245.5 56.5t81.5 273.5v237v221q0 209 -70.5 271.5t-277.5 62.5h-151q-147 0 -243.5 -38t-103.5 -232q-2 -35 -3 -71t-1 -70 v-73v-71z" />
<glyph unicode="1" horiz-adv-x="704" d="M53 954l377 412h213v-1366h-143v1249l-350 -385z" />
<glyph unicode="2" horiz-adv-x="1110" d="M72 0v254q0 250 122.5 307t325.5 78q8 0 15.5 1t15.5 1q23 2 42 4l38 4q150 14 212 59.5t62 235.5q0 205 -65.5 252t-261.5 47h-55q-28 0 -54 -2q-29 -2 -56.5 -4t-54.5 -8q-98 -20 -118.5 -94t-20.5 -158v-9v-12l2 -59h-149q0 188 40 313t255 152q53 6 105 9t106 3 q252 0 366.5 -75.5t114.5 -354.5v-47q0 -25 -2 -49q-4 -66 -23.5 -129.5t-72.5 -110.5q-61 -51 -139.5 -69.5t-159.5 -24.5q-18 -2 -38 -3t-38 -1q-145 -8 -255 -46t-110 -224v-29q0 -14 2 -27q0 -14 1 -28.5t1 -28.5h830v-127h-983z" />
<glyph unicode="3" horiz-adv-x="1150" d="M61 362v41q0 20 2 41h150v-79q0 -119 35 -178.5t168 -63.5q29 0 55.5 -1t54.5 -1q27 0 54.5 -1t54.5 -1q182 0 235.5 49t53.5 225q0 164 -63.5 202t-215.5 38h-188v131h44q22 0 44 2h44h44q168 2 216 43t48 207q0 115 -31.5 169t-152.5 60q-29 0 -56.5 1t-56.5 1h-56h-57 h-27q-13 0 -28 -2q-47 -2 -90 -13t-70 -38q-20 -25 -28 -56.5t-11 -64.5v-13v-16v-24v-25q-2 -12 -2 -24v-25h-143q0 244 82 338t326 94h65q215 0 355.5 -44t140.5 -302v-45q0 -23 -2 -47q-4 -43 -15.5 -85t-38.5 -77q-31 -39 -72.5 -53t-88.5 -23q-2 0 -6.5 -1t-8.5 -1 q152 -20 204 -85.5t52 -217.5q0 -137 -37.5 -253.5t-207.5 -139.5q-68 -8 -135.5 -11t-135.5 -3q-219 0 -361.5 53t-142.5 319z" />
<glyph unicode="4" horiz-adv-x="1173" d="M10 315v181l688 870h230v-922h205v-129h-205v-315h-146v315h-772zM139 444h643v822z" />
<glyph unicode="5" horiz-adv-x="1124" d="M68 391h151q0 -172 56.5 -222t222.5 -50h61q193 0 274.5 44t81.5 251q0 203 -39.5 294t-275.5 91h-76h-46q-24 0 -48 -2q-33 -4 -63.5 -10.5t-59.5 -20.5q-27 -14 -43 -39t-22 -53h-146v692h920v-133h-774v-412q45 59 111.5 82t138.5 29q29 2 55 2h53q244 0 358.5 -88 t114.5 -346q0 -313 -88 -413.5t-410 -100.5q-244 0 -375.5 60t-131.5 345z" />
<glyph unicode="6" horiz-adv-x="1157" d="M72 467l4 248v75v76q-2 39 -2 77v75q0 127 57 221t193 119q35 6 68.5 10t68.5 6q33 0 67.5 1t67.5 1q174 0 317.5 -42t143.5 -267v-11v-12q0 -6 -1 -11t-1 -11h-150q0 78 -20.5 142.5t-112.5 76.5q-45 6 -89 7t-87 1h-49q-23 0 -46.5 -1t-47.5 -3q-59 -4 -112.5 -20.5 t-78.5 -57.5q-12 -23 -18 -49t-8 -53q-2 -18 -3 -35v-33v-278q23 33 49.5 56.5t65.5 35.5q45 14 92 20.5t97 6.5q23 2 47 2h47q248 0 354.5 -73t106.5 -341v-24v-23q-4 -135 -52.5 -250t-216.5 -129q-57 -6 -116.5 -7t-118.5 -1q-279 0 -397.5 89t-118.5 386zM233 473 q0 -211 50.5 -282.5t273.5 -71.5h68q170 0 241.5 39t71.5 219q0 207 -43 269.5t-272 62.5h-52q-25 0 -53.5 -1t-56.5 -3q-51 -4 -98.5 -15.5t-77.5 -36.5q-29 -23 -39 -56.5t-13 -68.5v-20v-21v-14z" />
<glyph unicode="7" horiz-adv-x="1040" d="M25 1237v129h995v-195l-662 -1171h-182l717 1237h-868z" />
<glyph unicode="8" horiz-adv-x="1157" d="M70 399q0 152 44 217.5t191 94.5q-143 29 -181 97.5t-38 203.5q0 244 102.5 305t327.5 61h123q217 0 325.5 -59t108.5 -303q0 -137 -37 -206t-182 -99q152 -31 192.5 -99.5t40.5 -220.5q0 -137 -31.5 -241.5t-189.5 -141.5q-35 -8 -71.5 -11t-73.5 -5t-74 -2h-72 q-272 0 -388.5 59t-116.5 350zM223 387q0 -135 34 -196.5t185 -63.5q25 0 50.5 -1t52.5 -1q27 -2 52 -2h50q164 0 227.5 45t63.5 213q0 111 -32 176.5t-158 77.5q-43 4 -88 4h-89h-77q-125 0 -198 -33t-73 -184v-35zM242 958q0 -12 2 -22q2 -41 15 -77t46 -54 q29 -14 66 -21.5t75 -11.5q27 -2 53 -2h48h96q133 0 204 35t71 180v55v29q0 14 -3 31q-2 33 -12 62.5t-35 47.5q-23 16 -65.5 24.5t-89.5 12.5q-29 2 -57 2h-50h-59q-25 0 -54.5 -1t-60.5 -3q-43 -2 -84 -11t-65 -28q-25 -20 -33 -50t-8 -62v-8v-7v-55v-43v-23z" />
<glyph unicode="9" horiz-adv-x="1161" d="M68 307v11q0 5 2 10v9v11h145v-8v-8q-2 -4 -2 -8v-9q0 -106 46 -148t151 -46q27 0 52 -1t52 -1h50h52q180 0 248 45t68 231v256q-14 -27 -33.5 -48t-48.5 -32q-41 -16 -84 -25t-88 -11q-31 -2 -61.5 -3.5t-61.5 -1.5q-246 0 -361.5 66t-115.5 340q0 281 107.5 362.5 t367.5 81.5q272 0 400 -75.5t132 -380.5l5 -244v-264q0 -260 -104.5 -345t-367.5 -85l-90 -2q-184 2 -322 44.5t-138 278.5zM229 956q0 -180 51.5 -236t241.5 -56h47h60q31 0 61 2q29 2 59.5 6t59.5 10q90 23 107.5 80t17.5 133q0 205 -50 278.5t-270 73.5h-53 q-195 0 -263.5 -42t-68.5 -249z" />
<glyph unicode=":" horiz-adv-x="260" d="M80 0v186h162v-186h-162zM80 770v186h162v-186h-162z" />
<glyph unicode=";" horiz-adv-x="299" d="M49 -123q53 4 71.5 25.5t18.5 74.5v13q0 6 -2 10h-67v186h161v-200q0 -82 -25.5 -133.5t-115.5 -51.5h-11h-9q-4 2 -10 2h-11v74zM59 770v186h162v-186h-162z" />
<glyph unicode="&#x3c;" horiz-adv-x="935" d="M4 616v140l887 418v-160l-717 -328l717 -330v-157z" />
<glyph unicode="=" horiz-adv-x="1030" d="M80 512v84h930v-84h-930zM80 801v84h930v-84h-930z" />
<glyph unicode="&#x3e;" horiz-adv-x="972" d="M80 199v157l717 330l-717 330v158l887 -420v-138z" />
<glyph unicode="?" horiz-adv-x="954" d="M49 938q0 256 76 348t334 92q217 0 329.5 -60.5t112.5 -309.5q0 -240 -71.5 -302.5t-159.5 -87.5q-2 -2 -5 -3t-6 -1q-39 -10 -75.5 -26.5t-67.5 -46.5q-16 -16 -22.5 -37t-8.5 -43v-17v-16v-35h-149q0 133 27.5 194.5t128.5 108.5q12 4 26 11l29 12q25 8 45 16t37 17 q78 35 103.5 83t25.5 156q0 186 -60.5 221t-234.5 35q-20 0 -44 -1t-46 -3q-39 -2 -75 -12t-58 -31q-27 -25 -36 -60.5t-11 -74.5v-17v-18v-92h-144zM326 0v186h161v-186h-161z" />
<glyph unicode="@" horiz-adv-x="1255" d="M70 594v29q0 39 1 83t3 89q4 53 12 105t23 97q27 86 81 129t140 60q45 8 92 13t96 7q35 2 71 2h70h74q39 0 78 -2q49 -4 97 -10t89 -18q78 -25 117 -74t57 -127q14 -68 17.5 -135.5t3.5 -134.5q0 -66 -5 -132.5t-16 -132.5q-12 -80 -45.5 -124t-115.5 -44h-8h-7 q-51 2 -96 29t-55 82q-27 -61 -83 -86t-118 -29q-12 -2 -23 -2h-22q-180 0 -221 102.5t-41 254.5q0 162 48 253t228 91q63 0 122 -17.5t91 -77.5v91h99v-467v-5v-8q0 -8 1 -16t1 -16q2 -37 16 -69t62 -32q47 0 62 22.5t24 63.5q6 33 9 66t5 65q2 33 3 66t1 65q0 246 -50 333 t-321 87h-131h-45q-23 0 -45 -2q-45 0 -90 -4t-90 -12q-76 -14 -108.5 -54t-47.5 -112q-8 -45 -14 -90t-8 -92q0 -29 -1 -59.5t-1 -61.5q0 -37 1 -88t5 -105q4 -61 15 -119.5t32 -95.5q27 -47 72 -69.5t94 -32.5q4 0 7 -1t5 -1q29 -4 57.5 -7t57.5 -5q29 0 57.5 -1.5 t56.5 -1.5h95h32h35q45 2 88 7.5t76 15.5q18 4 31.5 17.5t21.5 27.5l70 -49q-16 -29 -43 -50.5t-61 -31.5q-41 -12 -86.5 -16t-92.5 -7h-21h-24q-373 0 -520 80t-147 494zM442 608q0 -20 1 -45.5t3 -52.5q4 -33 13.5 -64.5t25.5 -54.5q18 -23 45 -29t56 -8h11h11 q145 0 178 55.5t35 180.5l2 88q0 109 -39 159t-151 50h-25q-12 0 -24 -2q-35 -2 -68 -14.5t-49 -47.5q-12 -25 -17.5 -55.5t-7.5 -60.5v-27v-25v-47z" />
<glyph unicode="A" horiz-adv-x="1294" d="M35 0l497 1366h220l510 -1366h-162l-107 289h-690l-104 -289h-164zM344 414h604l-303 839z" />
<glyph unicode="B" horiz-adv-x="1198" d="M80 0v1366h657q182 0 267.5 -71.5t85.5 -266.5q0 -117 -30 -193.5t-147 -117.5q135 -37 176 -114t41 -210q0 -184 -73.5 -288.5t-280.5 -104.5h-696zM233 131h422q176 0 246 38t70 216q0 106 -34 177t-163 71h-49h-492v-502zM233 770h433q152 0 209 49t57 197 q0 125 -44 170t-167 45h-488v-461z" />
<glyph unicode="C" horiz-adv-x="1230" d="M72 598v15v16v27v28v213q0 195 68.5 316.5t279.5 144.5q33 4 66.5 7t66.5 5t67 2h66q274 0 360.5 -76.5t100.5 -357.5h-152q0 154 -36.5 225.5t-206.5 71.5q-72 0 -144.5 -2t-144.5 -8q-152 -10 -192 -91t-40 -227v-24l2 -219v-72q0 -33 1.5 -69t3.5 -72q4 -68 14 -129.5 t35 -106.5q25 -43 76 -61.5t108 -22.5q23 -2 45.5 -3t42.5 -1q66 0 130.5 1t127.5 7q90 8 140.5 43t54.5 131v38v40q-2 18 -2 38v38h151q0 -14 1 -30.5t1 -31.5q0 -16 1 -31.5t1 -31.5q0 -150 -70.5 -238t-230.5 -100q-55 -4 -110.5 -5t-110.5 -1l-190 -2 q-281 18 -330 203.5t-51 402.5z" />
<glyph unicode="D" horiz-adv-x="1280" d="M80 0v1366h631q307 0 403 -148.5t96 -435.5v-131q0 -254 -69.5 -452.5t-390.5 -198.5h-670zM231 133h447h52q28 0 56 4q55 4 107.5 21.5t85.5 60.5q37 47 53.5 112.5t20.5 137.5q2 33 3 64.5t1 62.5v68q0 82 -2 162.5t-13 160.5q-20 158 -110 200t-223 42h-478v-1096z " />
<glyph unicode="E" horiz-adv-x="985" d="M80 0v1366h876v-137h-727v-463h697v-129h-697v-506h727v-131h-876z" />
<glyph unicode="F" horiz-adv-x="917" d="M80 0v1366h835v-137h-679v-475h663v-129h-663v-625h-156z" />
<glyph unicode="G" horiz-adv-x="1271" d="M72 500v94q0 47 2 94v92v94q0 268 101 385t374 117h82q41 0 82 -2q41 0 82 -1t82 -1q176 -6 248.5 -96t72.5 -258v-51h-151q0 123 -32 192.5t-171 75.5q-70 4 -140.5 5t-142.5 1q-217 0 -271 -66.5t-59 -308.5l-2 -178l2 -194q0 -123 27 -228.5t176 -128.5q27 -4 54.5 -6 t54.5 -2q27 -2 54 -2h54h80q197 0 256.5 52t59.5 245v121h-435v133h586q4 -37 4 -74v-74v-98q0 -156 -45 -284t-237 -148q-70 -6 -139.5 -8t-141.5 -2q-328 0 -447.5 97.5t-119.5 412.5z" />
<glyph unicode="H" horiz-adv-x="1267" d="M80 0v1366h151v-604h799v604h156v-1366h-156v631h-799v-631h-151z" />
<glyph unicode="I" horiz-adv-x="323" d="M80 0v1366h156v-1366h-156z" />
<glyph unicode="J" horiz-adv-x="929" d="M8 336v81q0 40 2 81h152v-117q0 -143 37 -199.5t190 -56.5q176 0 243.5 46t67.5 228v965h152v-989q0 -207 -87 -295t-304 -88q-205 0 -329 51t-124 293z" />
<glyph unicode="K" horiz-adv-x="1253" d="M80 0v1366h156v-596h135l557 596h202l-624 -661l698 -705h-209l-624 633h-135v-633h-156z" />
<glyph unicode="L" horiz-adv-x="935" d="M80 0v1366h162v-1225h694v-141h-856z" />
<glyph unicode="M" horiz-adv-x="1656" d="M80 0v1366h264l481 -1169l484 1169h268v-1366h-156v1255l-516 -1255h-155l-521 1243v-1243h-149z" />
<glyph unicode="N" horiz-adv-x="1329" d="M80 0v1366h250l768 -1247v1247h149v-1366h-250l-768 1235v-1235h-149z" />
<glyph unicode="O" horiz-adv-x="1214" d="M72 526v133v80q0 279 56 460t388 181h68q276 0 417.5 -69.5t141.5 -390.5v-243q0 -122 -4 -243q-6 -250 -103.5 -349t-355.5 -99h-15h-16h-15h-16q-16 2 -30 2h-29q-231 0 -351 71.5t-134 331.5q-2 67 -2 135zM227 666l2 -220q4 -199 62.5 -264t265.5 -65q231 0 327.5 48 t102.5 298q0 55 1 111.5t1 113.5v114v111q0 252 -89 295t-308 43h-51q-180 0 -242.5 -55t-67.5 -278z" />
<glyph unicode="P" horiz-adv-x="1116" d="M80 0v1366h678q20 0 43 -2q51 -4 99 -17.5t87 -48.5q59 -53 82 -124.5t29 -149.5q0 -20 1 -41.5t1 -42.5q0 -25 -1 -50.5t-3 -51.5q-6 -57 -24.5 -111.5t-59.5 -95.5q-66 -66 -149 -79t-169 -15h-6q-16 0 -31.5 -1t-31.5 -1h-396v-535h-149zM229 668h365q182 0 264 41 t82 235q0 145 -37 217t-190 72h-35q-8 -2 -19 -2h-430v-563z" />
<glyph unicode="Q" horiz-adv-x="1382" d="M68 696q0 403 93 540.5t509 137.5h35h55q29 0 57 -2q49 -2 97.5 -9t89.5 -22q109 -37 156.5 -132t60.5 -201q4 -27 5 -52.5t1 -50.5v-219l2 -192v-32v-32q-2 -47 -8.5 -94t-20.5 -92l-4 -11l-47 -102q-68 -82 -163 -107.5t-198 -29.5q-23 -2 -47 -2h-49q-272 0 -438 58.5 t-182 385.5q-2 66 -3 130t-1 130zM221 798q0 -52 2 -104l2 -217q2 -254 91.5 -304t320.5 -50h26h27q14 -2 28 -2h27q20 0 43 1t46 3q53 4 104 23.5t86 62.5l-426 276l72 107l393 -260q2 14 4 27.5t2 27.5q2 12 2 26v27v89q0 44 2 90v89v89q0 49 -1 98t-5 96q-18 172 -96 210 t-205 38h-154q-203 0 -297 -45t-94 -295v-103z" />
<glyph unicode="R" horiz-adv-x="1202" d="M80 0v1366h647q213 0 308 -88t95 -307q0 -137 -30.5 -232.5t-208.5 -128.5q119 -8 170 -78.5t51 -183.5v-348h-158v313q0 135 -62.5 186.5t-195.5 51.5h-465v-551h-151zM231 678h445q156 0 225.5 50t69.5 206q0 147 -37 222t-205 75h-498v-553z" />
<glyph unicode="S" horiz-adv-x="1165" d="M68 360v17q0 8 2 16q0 8 1 16.5t1 16.5h147q0 -186 52.5 -243.5t240.5 -57.5h129q170 0 235.5 42t65.5 216q0 137 -40 182t-173 51q-31 2 -61.5 3.5t-61.5 1.5q-215 8 -372.5 59t-157.5 324q0 248 127 309t340 61h37q213 0 352 -50t139 -312v-21h-149q-8 152 -57.5 202 t-207.5 50h-73q-27 0 -61 -1t-70 -3q-43 -4 -84 -12t-68 -25q-33 -20 -48 -55t-20 -72q-2 -16 -3 -32.5t-1 -30.5q0 -113 36 -171.5t167 -66.5q45 -4 88 -5t86 -1q203 -4 347.5 -52t144.5 -317q0 -156 -46 -267.5t-233 -129.5q-33 -2 -65.5 -3t-63.5 -3q-33 -2 -65 -2h-66 q-213 0 -352 54t-139 312z" />
<glyph unicode="T" horiz-adv-x="1083" d="M20 1221v145h1041v-145h-438v-1221h-158v1221h-445z" />
<glyph unicode="U" horiz-adv-x="1234" d="M76 410v956h155v-956q0 -176 62.5 -230.5t234.5 -54.5h150q182 0 254 49t72 236v956h153v-956q0 -211 -80 -308.5t-309 -105.5q-39 -2 -77 -3t-77 -1q-250 0 -394 60.5t-144 357.5z" />
<glyph unicode="V" horiz-adv-x="1257" d="M33 1366h164l436 -1243l426 1243h166l-484 -1366h-221z" />
<glyph unicode="W" horiz-adv-x="2144" d="M53 1366h158l375 -1247l368 1247h228l366 -1247l383 1247h160l-430 -1366h-234l-358 1229l-367 -1229h-229z" />
<glyph unicode="X" horiz-adv-x="1331" d="M59 0l488 707l-449 659h187l387 -584l383 584h180l-434 -659l469 -707h-183l-415 627l-424 -627h-189z" />
<glyph unicode="Y" horiz-adv-x="1220" d="M25 1366h178l405 -639l406 639h182l-516 -795v-571h-154v571z" />
<glyph unicode="Z" horiz-adv-x="1161" d="M49 0v135l856 1086h-831v145h1022v-145l-860 -1086h878v-135h-1065z" />
<glyph unicode="[" horiz-adv-x="452" d="M80 -205v1571h348v-117h-197v-1337h197v-117h-348z" />
<glyph unicode="\" horiz-adv-x="1175" d="M4 1366h115l1052 -1567h-110z" />
<glyph unicode="]" horiz-adv-x="454" d="M23 -88h196v1335h-196v119h348v-1571h-348v117z" />
<glyph unicode="^" horiz-adv-x="966" d="M35 766l356 602h182l357 -602h-152l-297 494l-297 -494h-149z" />
<glyph unicode="_" horiz-adv-x="1185" d="M80 -147h1024v-105h-1024v105z" />
<glyph unicode="`" horiz-adv-x="376" d="M14 1253l72 99l270 -205l-47 -74z" />
<glyph unicode="a" horiz-adv-x="964" d="M63 287q0 190 105.5 239t267.5 49q23 0 47.5 -1t48.5 -3q37 -2 73 -9t69 -19q23 -8 39 -25.5t28 -40.5v115q0 176 -49 219t-225 43q-16 0 -38.5 -1t-43.5 -3q-31 -2 -57.5 -10.5t-44.5 -22.5q-20 -14 -28.5 -35.5t-10.5 -46.5q-2 -6 -2 -13v-13v-14q0 -7 2 -15h-148 q0 199 108.5 238.5t270.5 39.5q199 0 306.5 -55t107.5 -280v-623h-133l6 98q-61 -78 -144 -95t-178 -17q-176 0 -276.5 52t-100.5 249zM211 303q0 -125 51 -165t170 -40h43q23 0 45 2q86 4 158 38t72 141q0 129 -78 157.5t-187 28.5h-34h-39q-20 0 -41 -2q-35 -4 -69 -13.5 t-56 -29.5q-16 -12 -23.5 -32.5t-9.5 -43.5q-2 -10 -2 -20v-21z" />
<glyph unicode="b" horiz-adv-x="931" d="M80 0v1366h141v-530q35 72 101.5 99.5t140.5 33.5q12 2 24 2h25q256 0 325.5 -122t69.5 -353q0 -221 -59.5 -361.5t-329.5 -140.5h-7h-7q-84 2 -163 27.5t-128 99.5l8 -121h-141zM225 453q0 -174 42 -259t239 -85q117 0 172 38.5t70 159.5q6 47 8 93t2 94q0 174 -34 268 t-237 94q-184 0 -223 -92t-39 -258v-53z" />
<glyph unicode="c" horiz-adv-x="952" d="M68 508q0 244 84 351.5t337 107.5q158 0 273 -50.5t115 -240.5v-8v-6q-2 -4 -3 -9v-8h-139q0 129 -52 168t-177 39q-190 0 -239.5 -60.5t-49.5 -265.5v-96q0 -162 37 -243t223 -81q160 0 217.5 38t57.5 202h141q0 -221 -92 -287.5t-309 -66.5q-303 0 -363.5 124 t-60.5 392z" />
<glyph unicode="d" horiz-adv-x="931" d="M25 492q0 207 62.5 341t297.5 134h45q23 0 47 -2q70 -6 135.5 -32t96.5 -97v528h141v-1364h-141l8 123q-53 -84 -134 -109.5t-177 -25.5q-260 0 -320.5 138.5t-60.5 365.5zM172 441q0 -26 2 -52q2 -37 6 -71.5t13 -67.5q23 -94 88 -121t151 -27q199 0 238 93.5t39 265.5 t-35 281.5t-246 109.5q-193 0 -224.5 -95t-31.5 -263v-53z" />
<glyph unicode="e" horiz-adv-x="968" d="M68 455q0 250 61 383t346 133q268 0 347 -90t81 -357v-71h-688q0 -160 34 -256.5t226 -96.5h39h44q24 0 50 4q31 2 59.5 10.5t49.5 22.5q20 14 27.5 38t9.5 48q2 8 2 19v18v31h147q0 -211 -112.5 -256t-294.5 -45q-268 0 -348 102.5t-80 362.5zM217 563h543 q0 178 -42 237.5t-231 59.5q-166 0 -218 -61.5t-52 -235.5z" />
<glyph unicode="f" horiz-adv-x="585" d="M23 840v116h145v142q0 166 75.5 225t231.5 59q12 0 23.5 -1t21.5 -1t21.5 -1t23.5 -1v-118q-27 4 -52 4h-52q-84 0 -116 -38t-32 -116v-154h252v-116h-252v-840h-145v840h-145z" />
<glyph unicode="g" horiz-adv-x="966" d="M63 438q0 227 56.5 378t329.5 151q96 0 176 -26t133 -110l-6 123h137v-1015q0 -221 -103.5 -292t-314.5 -71q-184 0 -279.5 53.5t-95.5 259.5l133 -2q6 -129 55.5 -161.5t170.5 -32.5q141 0 219 37t78 198v189q-39 -76 -112 -100.5t-151 -26.5q-12 -2 -26 -2h-27 q-231 0 -302 122.5t-71 327.5zM213 444q0 -162 35 -251t227 -89q113 0 182.5 44.5t79.5 164.5q4 41 6 83t2 83q0 168 -34.5 268.5t-235.5 100.5q-160 0 -211 -60.5t-51 -230.5v-78v-35z" />
<glyph unicode="h" horiz-adv-x="915" d="M80 0v1366h141v-518q47 88 129 107.5t174 19.5q201 0 281 -74t80 -280v-621h-146v621v7v7q0 2 1 6t1 6q0 133 -52 173t-177 40q-180 0 -235.5 -71.5t-55.5 -241.5v-547h-141z" />
<glyph unicode="i" horiz-adv-x="288" d="M68 0v956h145v-956h-145zM68 1208v158h145v-158h-145z" />
<glyph unicode="j" horiz-adv-x="346" d="M4 -260q4 2 6 2h4q2 0 4 -1t5 -1q84 0 100 51t16 123v1042h140v-1044q0 -109 -37 -195t-170 -86q-16 0 -32.5 2t-33.5 7zM137 1208v158h146v-158h-146z" />
<glyph unicode="k" horiz-adv-x="882" d="M80 0v1366h145v-795h58l344 385h176l-408 -440l482 -516h-189l-405 461h-58v-461h-145z" />
<glyph unicode="l" horiz-adv-x="313" d="M80 0v1366h145v-1366h-145z" />
<glyph unicode="m" horiz-adv-x="1585" d="M80 0v956h137v-143q47 90 133 124t180 34q16 0 32 -1t32 -1q78 -8 146.5 -42t95.5 -114q53 90 139 125t186 35q188 0 267 -78t79 -264v-631h-149v643q0 123 -44 167t-169 44q-20 0 -44 -2t-48 -6q-51 -8 -98.5 -31.5t-67.5 -71.5q-12 -27 -16.5 -57.5t-6.5 -58.5v-21v-20 v-27v-559h-145v631q-6 133 -45 177t-178 44q-160 0 -219.5 -78t-59.5 -225v-549h-137z" />
<glyph unicode="n" horiz-adv-x="966" d="M80 0v956h133v-122q55 88 141 115.5t185 27.5q195 0 272.5 -75t77.5 -269v-633h-146v621q0 143 -45 190t-190 47q-137 0 -211 -63.5t-74 -208.5v-586h-143z" />
<glyph unicode="o" horiz-adv-x="983" d="M68 414v90q0 244 72.5 356.5t334.5 112.5q274 0 356 -95.5t82 -365.5q0 -236 -50 -381t-345 -145q-256 0 -353 80t-97 348zM215 382q0 -24 2 -46q4 -59 16.5 -112.5t38.5 -82.5q23 -20 55.5 -28.5t69.5 -10.5h16h15h66q125 0 191.5 35t74.5 170q2 29 3 55.5t1 55.5 q2 27 2 54v54q0 176 -33 252t-209 76h-30q-186 0 -232.5 -57.5t-46.5 -259.5v-31v-80v-44z" />
<glyph unicode="p" horiz-adv-x="929" d="M80 -412v1366h141l-6 -120q55 82 133 108.5t172 26.5q258 0 321.5 -130t63.5 -356q0 -219 -58.5 -357t-309.5 -138h-13h-12q-86 2 -164 25.5t-127 99.5v-525h-141zM225 438q0 -152 42 -243t220 -91q195 0 232 87.5t37 252.5v58q0 170 -34 259t-228 89q-188 0 -228.5 -81 t-40.5 -259v-72z" />
<glyph unicode="q" horiz-adv-x="935" d="M25 475q0 215 63.5 352.5t312.5 137.5q96 0 177 -21.5t139 -105.5l-6 116h143v-1364h-143v519q-33 -63 -95.5 -88t-130.5 -31q-18 -2 -36.5 -3t-36.5 -1q-258 0 -322.5 132t-64.5 357zM174 426q0 -164 43 -245t229 -81t223.5 99.5t37.5 253.5v18q0 193 -36 286t-247 93 q-178 0 -214 -98.5t-36 -251.5v-74z" />
<glyph unicode="r" horiz-adv-x="761" d="M80 0v956h139l-6 -110q43 72 111.5 102.5t150.5 30.5q145 0 212 -69.5t67 -213.5v-27q0 -13 -2 -30h-140q2 16 2 35v37q0 88 -42 118.5t-126 30.5q-111 0 -167 -55t-56 -168v-51v-586h-143z" />
<glyph unicode="s" horiz-adv-x="952" d="M66 250v13q0 7 2 13q0 6 1 13.5t1 13.5h143q0 -131 50 -169t175 -38h35q20 0 45 1t51 3q35 2 70 10.5t57 24.5q20 14 29.5 39t11.5 51q2 12 2 25v24q0 113 -58 131.5t-144 18.5h-5h-4q-12 2 -25 2h-28q-10 0 -20.5 1t-20.5 1q-147 6 -252.5 42t-105.5 216q0 18 1 37.5 t3 40.5q4 41 18.5 79t46.5 62q35 27 82 41.5t99 20.5q35 4 68.5 5t62.5 1h54q28 0 56 -2q111 -6 202 -49t91 -179v-9v-9q-2 -4 -2 -8v-8h-143q0 78 -24.5 110.5t-106.5 36.5q-39 2 -79 2h-81h-30q-15 0 -32 -2q-31 -2 -59.5 -8t-50.5 -23q-18 -14 -24.5 -34.5t-8.5 -42.5 v-17v-16q0 -88 27.5 -120t115.5 -36q27 -2 55 -2h54q158 -2 287 -39t129 -235q0 -209 -112.5 -252t-291.5 -43h-16h-16q-145 2 -265 43t-120 219z" />
<glyph unicode="t" horiz-adv-x="735" d="M37 842v112h125v232h145v-232h369v-112h-369v-588q0 -82 24.5 -116t110.5 -34q96 0 116 47.5t20 122.5v64h135q0 -150 -45 -250t-228 -100q-160 0 -219 57t-59 209v588h-125z" />
<glyph unicode="u" horiz-adv-x="950" d="M76 319v637h145v-637q0 -125 43 -170t174 -45q170 0 227.5 63.5t57.5 225.5v563h145v-956h-133v127q-61 -92 -140 -115.5t-187 -23.5q-172 0 -252 79.5t-80 251.5z" />
<glyph unicode="v" horiz-adv-x="909" d="M35 956h145l275 -847l262 847h155l-319 -956h-201z" />
<glyph unicode="w" horiz-adv-x="1470" d="M55 956h148l219 -860l211 860h205l209 -860l219 860h149l-268 -956h-207l-207 854l-207 -854h-211z" />
<glyph unicode="x" horiz-adv-x="962" d="M59 0l347 498l-310 458h162l221 -350l217 350h168l-305 -458l342 -498h-174l-248 385l-248 -385h-172z" />
<glyph unicode="y" horiz-adv-x="878" d="M43 956h145l299 -852l218 852h147l-270 -1011q-4 -12 -7.5 -26.5t-7.5 -29.5q-35 -121 -101.5 -220t-209.5 -99q-16 0 -33.5 3t-34.5 7v115q6 0 13.5 -1t13.5 -1q6 -2 13 -2h14q74 0 111.5 58t56.5 128q10 35 17 66.5t13 56.5h-51z" />
<glyph unicode="z" horiz-adv-x="856" d="M53 0v133l570 711h-523v112h691v-133l-572 -704h572v-119h-738z" />
<glyph unicode="{" horiz-adv-x="536" d="M25 446v121q72 20 95 70.5t23 118.5v358q0 172 86 225.5t236 53.5h13q7 0 16 -2v-140q-104 -2 -149.5 -41t-45.5 -149v-328q0 -78 -19.5 -134t-93.5 -95q72 -39 92.5 -100.5t20.5 -137.5v-317q0 -113 41 -154t154 -43v-135q-178 2 -264.5 51t-86.5 256v326 q0 72 -21 122.5t-97 73.5z" />
<glyph unicode="|" horiz-adv-x="327" d="M80 -342v1706h160v-1706h-160z" />
<glyph unicode="}" horiz-adv-x="538" d="M43 -242q104 4 149.5 43t45.5 150v325q0 78 19 134.5t91 95.5q-70 41 -90 101.5t-20 135.5v318q0 115 -43 155.5t-152 43.5v133q176 0 263 -45t87 -261v-327q0 -72 21.5 -123t97.5 -74v-121q-72 -20 -95.5 -70t-23.5 -118v-358q0 -168 -83 -222.5t-238 -54.5h-7h-8 q-4 0 -7 1t-7 1v137z" />
<glyph unicode="~" horiz-adv-x="1101" d="M61 602q41 86 109 157.5t170 71.5q59 0 112.5 -23.5t104.5 -49.5q0 -2 2 -2t2 -2q51 -27 102.5 -49.5t108.5 -22.5t97 38t69 85q6 8 10 15t8 16l86 -68q-2 -2 -3 -5t-3 -7q-41 -80 -110.5 -148.5t-165.5 -68.5q-59 0 -112.5 23.5t-106.5 49.5q-45 27 -92.5 48.5 t-100.5 27.5q-76 0 -121 -46t-80 -107z" />
<glyph unicode="&#xa1;" horiz-adv-x="303" d="M70 770v186h161v-186h-161zM72 -410v990h151v-990h-151z" />
<glyph unicode="&#xa2;" horiz-adv-x="913" d="M47 633q0 201 63.5 343t299.5 142v133h116v-133q174 -2 255 -73.5t81 -247.5h-139q-4 115 -36 159.5t-161 49.5v-752q141 6 178 59.5t37 184.5h140q0 -188 -77 -273.5t-278 -85.5v-145h-116v145q-250 6 -306.5 144.5t-56.5 349.5zM199 587q0 -22 2 -44q2 -43 7 -85 t15 -81q23 -76 69 -96.5t118 -24.5v752q-150 -12 -180.5 -90t-30.5 -222v-67v-42z" />
<glyph unicode="&#xa3;" horiz-adv-x="1181" d="M47 532v130h170v208v16v13q-2 8 -2 15v14q0 264 86 355t350 91q199 0 332 -57t133 -295v-16v-17q0 -8 -1 -16t-1 -17h-147q0 160 -45 224.5t-217 64.5h-54h-49q-27 0 -53 -4q-39 -4 -75 -14t-58 -31q-23 -23 -32 -55.5t-13 -67.5q0 -14 -1 -27.5t-1 -25.5v-7v-7v-10v-9 v-49v-276h387v-130h-387v-86q0 -43 2 -86q0 -82 -20.5 -135t-84.5 -100q-2 -2 -5 -4t-5 -4l885 10v-127h-1059v117q51 12 81 42.5t42 82.5q6 29 8 58.5t4 59.5v30v30v112h-170z" />
<glyph unicode="&#xa4;" horiz-adv-x="1277" d="M70 1178l86 86l192 -193q16 10 32.5 19.5t33.5 17.5q53 29 107 46t120 17q80 0 149.5 -27.5t133.5 -72.5l194 191l86 -84l-192 -191q47 -63 74.5 -136t27.5 -153t-27.5 -149.5t-70.5 -134.5l190 -191l-84 -86l-192 191q-63 -49 -137 -76t-156 -27q-78 0 -150.5 31 t-138.5 72l-188 -191l-86 86l186 191q-45 61 -71.5 135t-26.5 151q0 80 28.5 151t73.5 134zM303 700q0 -137 99.5 -236t236.5 -99t235.5 99t98.5 236t-97.5 237.5t-236.5 100.5q-137 0 -236.5 -100.5t-99.5 -237.5z" />
<glyph unicode="&#xa5;" horiz-adv-x="1234" d="M59 1366h179l378 -639l377 639h183l-267 -434h187v-127h-265l-124 -203h389v-127h-408v-475h-153v475h-396v127h377l-121 203h-256v127h180z" />
<glyph unicode="&#xa6;" horiz-adv-x="294" d="M80 313h160v-655h-160v655zM80 680v684h160v-684h-160z" />
<glyph unicode="&#xa7;" horiz-adv-x="1079" d="M63 559q0 94 30 156.5t126 83.5q-68 45 -86 112.5t-18 143.5q0 215 94 270t285 55h51q227 0 331.5 -52t104.5 -310h-135q0 158 -53.5 196.5t-208.5 38.5h-99h-20h-21q-33 -2 -63.5 -6t-56.5 -14q-37 -14 -51.5 -46t-16.5 -67q-2 -12 -2 -24v-25q0 -98 21.5 -131t84.5 -53 q16 -4 36 -10.5t42 -12.5l305 -92q18 -6 36 -10t32 -10q106 -31 152.5 -82.5t46.5 -192.5q0 -82 -27 -144.5t-106 -96.5q94 -41 114.5 -111t20.5 -162q0 -209 -95.5 -280.5t-298.5 -71.5l-83 -2q-227 2 -346 58.5t-119 322.5l139 -2v-58v-13v-15q2 -33 10 -61.5t31 -49.5 q23 -20 64.5 -29.5t86.5 -13.5q31 -2 59.5 -3t53.5 -1l18 -2q8 2 17 2h18q8 2 17 2h16q104 2 188 28.5t84 164.5q0 100 -23.5 137t-96.5 59l-28.5 9.5t-35.5 9.5l-420 110q-131 37 -168 100.5t-37 194.5zM199 571q0 -88 25.5 -120.5t94.5 -55.5q6 -2 13.5 -4t15.5 -4 l309 -86q4 0 8.5 -2t8.5 -2q18 -6 38.5 -10t41.5 -4q78 0 101.5 58t25.5 130v9v12q0 74 -49.5 101.5t-108.5 43.5q0 2 -1 2h-3q-2 0 -3 1t-3 1l-295 86q-14 6 -29.5 10t-30.5 8q-10 2 -20 3.5t-21 1.5q-70 0 -94 -54.5t-24 -117.5v-4v-3z" />
<glyph unicode="&#xa8;" horiz-adv-x="673" d="M78 1053v135h160v-135h-160zM440 1053v135h162v-135h-162z" />
<glyph unicode="&#xa9;" horiz-adv-x="1521" d="M55 682q0 293 208 500t499 207t497.5 -208t206.5 -499t-206.5 -498t-497.5 -207t-499 207t-208 498zM141 682q0 -256 181.5 -442.5t439.5 -186.5t438 187.5t180 441.5q0 256 -180 441.5t-438 185.5t-439.5 -185.5t-181.5 -441.5zM371 713q0 219 75.5 315t303.5 96 q143 0 246.5 -45t103.5 -217v-12q-2 -4 -2 -8v-6h-127q0 117 -46 151.5t-159 34.5q-172 0 -216 -54.5t-44 -238.5v-88q0 -145 32.5 -218t200.5 -73q143 0 195.5 34t52.5 181h127q0 -199 -83 -258t-279 -59q-272 0 -326.5 111.5t-54.5 353.5z" />
<glyph unicode="&#xaa;" horiz-adv-x="782" d="M63 575v80h654v-80h-654zM119 963q0 119 69.5 148.5t169.5 29.5h12h11q43 0 85 -7.5t77 -37.5v51q0 104 -31 127.5t-135 23.5h-5h-5q-47 0 -86 -12t-39 -69v-6v-5q0 -4 1 -6t1 -6h-103q0 2 -1 5t-1 5v5v5q0 115 76 136.5t168 21.5q121 0 192.5 -30.5t71.5 -176.5v-379 h-96l4 48q-6 -6 -12 -11.5t-13 -9.5q-39 -27 -78.5 -32t-91.5 -5q-106 0 -173.5 33t-67.5 154zM223 973q0 -88 38 -102.5t116 -14.5h19h20q49 4 90 22.5t41 79.5q0 78 -47 92.5t-113 14.5h-27q-94 0 -115.5 -20.5t-21.5 -71.5z" />
<glyph unicode="&#xab;" horiz-adv-x="813" d="M37 526l246 521l104 -64l-215 -457l240 -460l-101 -66zM373 526l245 521l105 -64l-215 -457l240 -460l-101 -66z" />
<glyph unicode="&#xac;" horiz-adv-x="974" d="M6 428v139h887v-567h-154v428h-733z" />
<glyph unicode="&#xad;" d="M80 432v133h475v-133h-475z" />
<glyph unicode="&#xae;" horiz-adv-x="1521" d="M55 682q0 145 56.5 274t152.5 225.5t224 152t274 55.5q143 0 271 -56.5t224.5 -153t152.5 -225.5t56 -272q0 -145 -56 -273t-151.5 -223.5t-224.5 -152t-272 -56.5q-145 0 -273.5 55.5t-224.5 152t-152.5 224.5t-56.5 273zM141 682q0 -127 48.5 -240.5t133.5 -199.5 t197.5 -137.5t241.5 -51.5t241.5 51.5t196.5 137.5t132 199.5t48 240.5t-49 240.5t-133 199.5t-196.5 136.5t-239.5 50.5q-129 0 -241.5 -50.5t-196.5 -136.5t-133.5 -199.5t-49.5 -240.5zM432 227v922h436q147 0 211 -59.5t64 -206.5q0 -47 -3 -86t-18.5 -70t-48.5 -53.5 t-94 -32.5q80 -6 114.5 -54t34.5 -124v-236h-106v211q0 92 -42 127t-130 35h-315v-373h-103zM535 684h299q106 0 153 34t47 140q0 47 -4 84t-20.5 63.5t-49 40t-90.5 13.5h-335v-375z" />
<glyph unicode="&#xaf;" horiz-adv-x="569" />
<glyph unicode="&#xb0;" horiz-adv-x="690" d="M55 1061q0 123 82 210t207 87q121 0 205 -86t84 -205t-86 -204t-203 -85q-113 0 -201 84t-88 199zM131 1065q0 -86 63.5 -149.5t147.5 -63.5q88 0 151.5 63.5t63.5 151.5t-62.5 152.5t-150.5 64.5t-150.5 -65.5t-62.5 -153.5z" />
<glyph unicode="&#xb1;" horiz-adv-x="946" d="M8 115v86h930v-86h-930zM8 680v86h420v393h88v-393h422v-86h-422v-389h-88v389h-420z" />
<glyph unicode="&#xb2;" horiz-adv-x="737" d="M72 547v158q0 152 85 187.5t210 47.5q14 2 27.5 3t23.5 1q82 8 117.5 32.5t35.5 135.5q0 117 -37.5 142.5t-150.5 25.5h-35h-21q-11 0 -24 -2q-29 0 -55.5 -6t-40.5 -19q-20 -16 -26.5 -41.5t-6.5 -54.5v-20q0 -10 2 -21v-20v-21h-104q0 197 64.5 247t244.5 50 q158 0 227.5 -46t69.5 -214v-19v-20q-2 -47 -13.5 -91t-48.5 -75t-83 -42t-93 -13q-12 -2 -24 -2h-23q-86 -4 -151.5 -26.5t-65.5 -135.5v-13v-13q0 -6 1 -13.5t1 -13.5h498v-88h-604z" />
<glyph unicode="&#xb3;" horiz-adv-x="757" d="M61 825h105v-53q0 -70 19.5 -101.5t95.5 -33.5h32h35q16 -2 33 -2h33q88 0 127 22.5t39 114.5q0 96 -34 124t-128 28h-119v92h113q96 2 123.5 24.5t27.5 116.5q0 90 -33.5 109.5t-113.5 19.5h-94q-70 0 -107 -19.5t-37 -97.5v-61h-100q0 176 65.5 223t225.5 47 q127 0 215 -28.5t88 -182.5v-16v-16q-2 -25 -5 -48.5t-14 -46.5q-12 -29 -33.5 -44t-50.5 -25q72 -16 95.5 -61.5t23.5 -116.5q0 -178 -79 -214t-238 -36q-178 0 -244 47t-66 235z" />
<glyph unicode="&#xb4;" horiz-adv-x="376" d="M18 1147l271 205l71 -99l-292 -180z" />
<glyph unicode="&#xb5;" horiz-adv-x="956" d="M80 -340v1319h147v-553q0 -68 10.5 -132.5t57.5 -115.5q39 -41 90 -63.5t109 -22.5q123 0 191.5 92t82.5 203q2 14 3 28.5t1 28.5v535h148v-979h-148v190q-35 -92 -107.5 -152.5t-175.5 -60.5q-90 0 -152.5 37t-109.5 111v-465h-147z" />
<glyph unicode="&#xb6;" horiz-adv-x="1230" d="M20 911v29q0 221 77 322.5t306 101.5h68h678v-1747h-137v1620h-162v-1620h-137v918h-217q-18 2 -38 2h-40h-28h-28q-72 2 -139 19t-117 75q-45 53 -63 118.5t-20 133.5q-3 14 -3 28zM166 967q0 -174 51 -235.5t238 -63.5q66 0 130 -2t128 -7v578l-250 6q-6 0 -13.5 1 t-15.5 1h-15h-13h-36q-19 0 -38 -2q-31 -4 -59.5 -12t-49.5 -29q-27 -27 -39 -66.5t-16 -82.5q-2 -23 -2 -44v-42z" />
<glyph unicode="&#xb7;" horiz-adv-x="329" d="M80 526v187h162v-187h-162z" />
<glyph unicode="&#xb8;" horiz-adv-x="299" d="M27 -311l139 239l113 -63l-162 -223z" />
<glyph unicode="&#xb9;" horiz-adv-x="454" d="M0 1116l233 250h138v-819h-101v727l-202 -221z" />
<glyph unicode="&#xba;" horiz-adv-x="784" d="M66 575v80h653v-80h-653zM123 1042v52q0 168 51 227t219 59q166 0 217.5 -60t51.5 -233v-32q0 -143 -39 -211t-217 -68q-150 0 -216.5 55t-66.5 211zM225 995q2 -35 9.5 -66.5t25.5 -47.5q16 -14 39 -18.5t47 -4.5q139 0 176 31t37 153v76q0 86 -20.5 133t-116.5 47h-45 h-22q-11 0 -23 -2q-20 -2 -39 -6t-31 -14q-16 -14 -24.5 -41t-10.5 -57q-2 -14 -2 -29v-27v-28v-58v-20v-21z" />
<glyph unicode="&#xbb;" horiz-adv-x="811" d="M63 66l238 460l-215 457l107 64l245 -521l-276 -526zM399 66l238 460l-215 457l106 64l246 -521l-276 -526z" />
<glyph unicode="&#xbc;" horiz-adv-x="1710" d="M233 1139l234 250h137v-820h-100v727l-203 -221zM326 0l921 1366h109l-926 -1366h-104zM805 207v115l418 518h147v-543h123v-90h-123v-187h-100v187h-465zM903 297h367v459z" />
<glyph unicode="&#xbd;" horiz-adv-x="1638" d="M119 1118l233 250h137v-819h-100v727l-203 -221zM193 0l921 1366h109l-926 -1366h-104zM897 528q2 14 2 27v25q4 180 82 212.5t227 32.5q158 0 226.5 -46t68.5 -214v-19v-20q-2 -47 -13 -91t-48 -75q-29 -25 -68 -37t-80 -16q-18 -4 -35.5 -5t-33.5 -3h-6h-5 q-160 -12 -186.5 -45t-26.5 -102v-17q0 -8 3 -14v-17v-16h497v-88h-602v158q0 152 80 187.5t199 45.5q4 0 7 1t7 1q14 2 27.5 3t25.5 1q82 8 118 33t36 135q0 117 -39 142.5t-152 25.5h-34h-22q-11 0 -24 -2q-29 0 -55 -6t-41 -18q-18 -14 -23 -36t-8 -44v-12v-9v-78h-104z " />
<glyph unicode="&#xbe;" horiz-adv-x="1779" d="M150 821h104v-53q0 -70 19.5 -101.5t95.5 -33.5q18 0 35.5 -1t33.5 -1q16 -2 34 -2h36q88 0 124 25.5t36 113.5q0 96 -34 124t-128 28h-119v92q10 -2 20 -2h17l76 2q96 2 123.5 23.5t27.5 115.5q0 90 -32.5 110.5t-114.5 20.5h-92h-16h-15q-27 -2 -52.5 -8t-39.5 -23 q-12 -12 -16.5 -29.5t-6.5 -35.5v-9v-12v-61h-100q0 176 65.5 222t225.5 46q127 0 215 -27.5t88 -183.5v-24q0 -12 -2 -27q-2 -18 -5 -36.5t-12 -37.5q-12 -29 -33.5 -44t-50.5 -25q72 -18 95.5 -63.5t23.5 -117.5q0 -176 -79 -211.5t-238 -35.5q-178 0 -243.5 47t-65.5 235 zM418 0l921 1366h109l-928 -1366h-102zM942 176v115l416 518h147v-543h123v-90h-123v-186h-100v186h-463zM1040 266h365v459z" />
<glyph unicode="&#xbf;" horiz-adv-x="948" d="M49 -49q0 121 31 226.5t164 152.5q10 4 20 7t21 7q2 0 3 1t3 1q66 23 119 55.5t53 112.5v12q0 6 2 13v10v12h149q0 -133 -27.5 -195.5t-144.5 -111.5q-8 -4 -18 -8l-21 -8q-25 -10 -47 -18.5t-41 -16.5q-70 -33 -96 -79t-26 -157q0 -180 54 -218t224 -38q133 0 210 32 t77 185v90h143q0 -246 -69.5 -343t-339.5 -97q-217 0 -330 61.5t-113 311.5zM461 770v186h162v-186h-162z" />
<glyph unicode="&#xc0;" horiz-adv-x="1280" d="M27 0l497 1366h219l510 -1366h-161l-107 289h-690l-105 -289h-163zM336 414h604l-303 839zM469 1634l72 99l270 -205l-47 -74z" />
<glyph unicode="&#xc1;" horiz-adv-x="1280" d="M27 0l497 1366h219l510 -1366h-161l-107 289h-690l-105 -289h-163zM336 414h604l-303 839zM469 1528l270 205l72 -99l-293 -180z" />
<glyph unicode="&#xc2;" horiz-adv-x="1296" d="M35 0l497 1366h220l510 -1366h-162l-107 289h-690l-104 -289h-164zM330 1528l321 194l314 -194l-43 -78l-271 125l-282 -125zM344 414h604l-303 839z" />
<glyph unicode="&#xc3;" horiz-adv-x="1280" d="M27 0l497 1366h219l510 -1366h-161l-107 289h-690l-105 -289h-163zM330 1526q27 49 64.5 91t99.5 46q37 0 69.5 -12.5t65.5 -26.5q31 -16 63.5 -28.5t69.5 -12.5q33 0 57.5 20.5t40.5 45.5q4 4 6 7t4 7l78 -49q0 -2 -1 -3l-3 -3q-31 -49 -76 -90t-108 -41q-35 0 -68 12 t-63 27q-2 0 -4 1t-4 3q-31 12 -61 23t-62 11q-31 0 -48.5 -19t-31.5 -44q-2 -2 -3 -5t-3 -5zM336 414h604l-303 839z" />
<glyph unicode="&#xc4;" horiz-adv-x="1280" d="M27 0l497 1366h219l510 -1366h-161l-107 289h-690l-105 -289h-163zM336 414h604l-303 839zM377 1483v135h160v-135h-160zM739 1483v135h162v-135h-162z" />
<glyph unicode="&#xc5;" horiz-adv-x="1288" d="M31 0l497 1366h220l509 -1366h-161l-107 289h-690l-104 -289h-164zM340 414h604l-303 839zM487 1599q0 63 47.5 109.5t110.5 46.5t109.5 -46t46.5 -110q0 -63 -46 -110t-110 -47q-63 0 -110.5 47t-47.5 110zM555 1599q0 -37 26.5 -63.5t63.5 -26.5q35 0 61.5 27t26.5 63 q0 35 -26.5 62t-61.5 27q-37 0 -63.5 -27t-26.5 -62z" />
<glyph unicode="&#xc6;" horiz-adv-x="1931" d="M33 0l753 1366h1092v-143h-713v-457h682v-131h-682v-502h713v-133h-870v287h-635l-158 -287h-182zM442 418h566v805h-129z" />
<glyph unicode="&#xc7;" horiz-adv-x="1183" d="M51 582v8v8v15v16v27v28v215q0 195 68.5 314.5t279.5 146.5q33 4 67 6t66 4q33 2 67 2h67q272 0 359 -76.5t101 -357.5h-151q0 156 -37 226.5t-207 70.5q-72 0 -144.5 -2t-144.5 -6q-152 -10 -191.5 -94t-39.5 -226v-24l2 -219v-72q0 -33 1 -68t3 -71q4 -66 14.5 -129.5 t34.5 -106.5q25 -47 78 -64.5t111 -21.5q18 -2 37 -2h36h68q33 0 68 2q33 0 66.5 1t66.5 3q90 8 140 43t54 133v38v40q-2 18 -2 38v38h152q0 -16 1 -31.5t1 -32.5q0 -16 1 -31.5t1 -31.5q0 -150 -70.5 -239t-230.5 -99l-111 -4q-55 -2 -110 -2h-191q-274 18 -325.5 196.5 t-55.5 391.5zM471 -311l139 239l113 -63l-162 -223z" />
<glyph unicode="&#xc8;" horiz-adv-x="950" d="M59 0v1366h877v-137h-727v-463h696v-129h-696v-506h727v-131h-877zM324 1634l71 99l271 -205l-48 -74z" />
<glyph unicode="&#xc9;" horiz-adv-x="950" d="M59 0v1366h877v-137h-727v-463h696v-129h-696v-506h727v-131h-877zM324 1528l270 205l72 -99l-293 -180z" />
<glyph unicode="&#xca;" horiz-adv-x="964" d="M68 0v1366h876v-137h-727v-463h696v-129h-696v-506h727v-131h-876zM184 1528l322 194l313 -194l-43 -78l-270 125l-283 -125z" />
<glyph unicode="&#xcb;" horiz-adv-x="954" d="M66 0v1366h876v-137h-727v-463h696v-129h-696v-506h727v-131h-876zM238 1483v135h159v-135h-159zM600 1483v135h162v-135h-162z" />
<glyph unicode="&#xcc;" horiz-adv-x="387" d="M23 1634l71 99l271 -205l-48 -74zM115 0v1366h155v-1366h-155z" />
<glyph unicode="&#xcd;" horiz-adv-x="387" d="M23 1528l270 205l72 -99l-293 -180zM115 0v1366h155v-1366h-155z" />
<glyph unicode="&#xce;" horiz-adv-x="673" d="M18 1528l322 194l313 -194l-43 -78l-270 125l-283 -125zM258 0v1366h156v-1366h-156z" />
<glyph unicode="&#xcf;" d="M55 1483v135h160v-135h-160zM240 0v1366h155v-1366h-155zM418 1483v135h162v-135h-162z" />
<glyph unicode="&#xd0;" horiz-adv-x="1402" d="M51 641v125h156v600h498q313 0 475.5 -189.5t162.5 -492.5q0 -307 -164.5 -495.5t-482.5 -188.5h-489v641h-156zM365 135h307q260 0 385 150.5t125 398.5q0 246 -125 396.5t-381 150.5h-311v-465h229v-125h-229v-506z" />
<glyph unicode="&#xd1;" horiz-adv-x="1296" d="M63 0v1366h250l768 -1247v1247h150v-1366h-250l-768 1235v-1235h-150zM338 1526q27 49 64.5 91t99.5 46q37 0 69.5 -12.5t65.5 -26.5q31 -16 63.5 -28.5t69.5 -12.5q33 0 57.5 20.5t40.5 45.5q4 4 6.5 7t4.5 7l77 -49q0 -2 -1 -3l-3 -3q-31 -49 -76 -90t-108 -41 q-35 0 -67.5 12t-63.5 27q-2 0 -4 1t-4 3q-31 12 -60.5 23t-62.5 11q-31 0 -48.5 -19t-31.5 -44q-2 -2 -3 -5t-3 -5z" />
<glyph unicode="&#xd2;" horiz-adv-x="1175" d="M51 526v213q0 279 56.5 460t388.5 181h67q276 0 417.5 -69.5t141.5 -390.5v-244q0 -121 -4 -242q-6 -250 -103 -349t-356 -99h-61q-16 2 -31 2h-28q-231 0 -351 71.5t-135 331.5q-2 67 -2 135zM207 666l2 -220q4 -199 62.5 -264t265.5 -65q231 0 327.5 48t102.5 298 q0 55 1 111.5t1 113.5v225q0 252 -89 295t-309 43h-51q-180 0 -242.5 -55t-66.5 -278zM428 1634l72 99l270 -205l-47 -74z" />
<glyph unicode="&#xd3;" horiz-adv-x="1175" d="M51 526v133v80q0 279 56.5 460t388.5 181h67q276 0 417.5 -69.5t141.5 -390.5v-243q0 -122 -4 -243q-6 -250 -103 -349t-356 -99h-15h-15h-16h-15q-16 2 -31 2h-28q-231 0 -351 71.5t-135 331.5q-2 67 -2 135zM207 666l2 -220q4 -199 62.5 -264t265.5 -65q231 0 327.5 48 t102.5 298q0 55 1 111.5t1 113.5v114v111q0 252 -89 295t-309 43h-51q-180 0 -242.5 -55t-66.5 -278zM418 1530l270 205l72 -99l-293 -180z" />
<glyph unicode="&#xd4;" horiz-adv-x="1187" d="M57 526v133v80q0 279 56.5 460t388.5 181h67q276 0 417.5 -69.5t141.5 -390.5v-243q0 -122 -4 -243q-6 -250 -103 -349t-355 -99h-16h-15h-15h-16q-16 2 -31 2h-28q-231 0 -351 71.5t-135 331.5q-2 67 -2 135zM213 666l2 -220q4 -199 62.5 -264t265.5 -65q231 0 327.5 48 t102.5 298q0 55 1 111.5t1 113.5v114v111q0 252 -89 295t-308 43h-52q-180 0 -242.5 -55t-66.5 -278zM276 1528l322 194l313 -194l-43 -78l-270 125l-283 -125z" />
<glyph unicode="&#xd5;" horiz-adv-x="1185" d="M57 526v133v80q0 279 56.5 460t388.5 181h67q276 0 417.5 -69.5t141.5 -390.5v-243q0 -122 -4 -243q-6 -250 -103 -349t-355 -99h-16h-15h-15h-16q-16 2 -31 2h-28q-231 0 -351 71.5t-135 331.5q-2 67 -2 135zM213 666l2 -220q4 -199 62.5 -264t265.5 -65q231 0 327.5 48 t102.5 298q0 55 1 111.5t1 113.5v114v111q0 252 -89 295t-308 43h-52q-180 0 -242.5 -55t-66.5 -278zM285 1528q27 49 64.5 91t99.5 46q37 0 69.5 -12.5t65.5 -26.5q31 -16 63.5 -28.5t69.5 -12.5q33 0 57.5 20.5t40.5 45.5q4 4 6 7t4 7l78 -49q0 -2 -1 -3l-3 -3 q-31 -49 -76 -90t-108 -41q-35 0 -68 12t-63 27q-2 0 -4 1t-5 3q-31 12 -60.5 23t-61.5 11q-31 0 -48.5 -19t-31.5 -44q-2 -2 -3 -5t-3 -5z" />
<glyph unicode="&#xd6;" horiz-adv-x="1187" d="M57 526v133v80q0 279 56.5 460t388.5 181h67q276 0 417.5 -69.5t141.5 -390.5v-243q0 -122 -4 -243q-6 -250 -103 -349t-355 -99h-16h-15h-15h-16q-16 2 -31 2h-28q-231 0 -351 71.5t-135 331.5q-2 67 -2 135zM213 666l2 -220q4 -199 62.5 -264t265.5 -65q231 0 327.5 48 t102.5 298q0 55 1 111.5t1 113.5v114v111q0 252 -89 295t-308 43h-52q-180 0 -242.5 -55t-66.5 -278zM332 1485v135h160v-135h-160zM694 1485v135h162v-135h-162z" />
<glyph unicode="&#xd7;" horiz-adv-x="913" d="M70 373l325 325l-323 324l59 61l324 -325l325 325l62 -61l-326 -326l326 -323l-60 -60l-325 324l-326 -326z" />
<glyph unicode="&#xd8;" horiz-adv-x="1386" d="M70 2v148l82 79q-14 35 -21.5 79t-9.5 89q-4 39 -4 77v71v192v9v10q0 43 1 88t5 92q10 147 68.5 273t228.5 151q35 4 67.5 7t67.5 5q33 2 67 2h66h119h16h19q96 -2 189 -25.5t161 -103.5l125 123v-158l-72 -67q14 -31 21.5 -73t9.5 -85q4 -35 4 -71v-64v-200 q0 -99 -4 -197q-2 -162 -60.5 -293t-244.5 -158q-88 -8 -175 -9t-175 -1q-119 0 -227.5 18.5t-192.5 114.5zM270 510q0 -20 1 -40.5t1 -39.5v-41v-41l813 795q-33 53 -84 76.5t-112 23.5q-25 0 -50.5 1t-52.5 1h-52h-50q-305 0 -358.5 -81t-53.5 -437zM311 229 q35 -57 90.5 -78.5t118.5 -25.5q47 -2 95.5 -3t93.5 -1q266 0 340.5 70.5t74.5 328.5v70v72q0 35 1 69.5t1 69.5q0 53 -2 107.5t-6 109.5z" />
<glyph unicode="&#xd9;" horiz-adv-x="1193" d="M55 410v956h156v-956q0 -176 62.5 -230.5t234.5 -54.5h149q182 0 254 49t72 236v956h154v-956q0 -211 -80 -308.5t-309 -105.5q-39 -2 -77 -3t-77 -1q-250 0 -394.5 60.5t-144.5 357.5zM426 1634l72 99l270 -205l-47 -74z" />
<glyph unicode="&#xda;" horiz-adv-x="1193" d="M55 410v956h156v-956q0 -176 62.5 -230.5t234.5 -54.5h149q182 0 254 49t72 236v956h154v-956q0 -211 -80 -308.5t-309 -105.5q-39 -2 -77 -3t-77 -1q-250 0 -394.5 60.5t-144.5 357.5zM426 1528l270 205l72 -99l-293 -180z" />
<glyph unicode="&#xdb;" horiz-adv-x="1206" d="M61 410v956h156v-956q0 -176 62.5 -230.5t234.5 -54.5h150q182 0 253.5 49t71.5 236v956h154v-956q0 -211 -80 -308.5t-309 -105.5q-39 -2 -77 -3t-77 -1q-250 0 -394.5 60.5t-144.5 357.5zM285 1528l321 194l314 -194l-43 -78l-271 125l-282 -125z" />
<glyph unicode="&#xdc;" horiz-adv-x="1206" d="M61 410v956h156v-956q0 -176 62.5 -230.5t234.5 -54.5h150q182 0 253.5 49t71.5 236v956h154v-956q0 -211 -80 -308.5t-309 -105.5q-39 -2 -77 -3t-77 -1q-250 0 -394.5 60.5t-144.5 357.5zM340 1485v135h160v-135h-160zM702 1485v135h162v-135h-162z" />
<glyph unicode="&#xdd;" horiz-adv-x="1198" d="M12 1366h178l406 -639l405 639h183l-516 -795v-571h-154v571zM475 1528l270 205l72 -99l-293 -180z" />
<glyph unicode="&#xde;" horiz-adv-x="1038" d="M80 0v1366h158v-164h331q190 0 325.5 -100.5t135.5 -306.5q0 -193 -128 -296.5t-310 -103.5h-354v-395h-158zM238 520h292q133 0 236.5 62.5t103.5 214.5t-93 213t-230 61h-309v-551z" />
<glyph unicode="&#xdf;" horiz-adv-x="974" d="M78 0v1055q0 201 89 262t273 61h20h17q135 -2 247 -48t112 -220q0 -96 -43 -145.5t-134 -83.5q180 -37 217 -145.5t37 -274.5q0 -186 -49 -327.5t-274 -141.5q-106 0 -189.5 54t-83.5 173v20q0 9 2 17v19v18h140v-12v-13q4 -61 27.5 -111.5t99.5 -50.5q94 0 132 54.5 t40 140.5q0 18 1 35.5t1 36.5q2 18 2 36v35q0 147 -38 262t-222 115h-33h-31q-16 -2 -32 -2h-33v121h20q10 0 23 2h20h21h13h15q82 0 144.5 18.5t62.5 126.5q0 129 -64.5 154t-176.5 25q-113 0 -168.5 -39t-55.5 -158v-1069h-149z" />
<glyph unicode="&#xe0;" horiz-adv-x="917" d="M41 287q0 190 105.5 239t267.5 49q23 0 47 -1t49 -3q37 -2 72.5 -9t68.5 -19q23 -8 39.5 -25.5t28.5 -40.5v115q0 176 -49 219t-226 43q-16 0 -38.5 -1t-43.5 -3q-31 -2 -57 -10.5t-45 -22.5q-20 -14 -28.5 -35.5t-10.5 -46.5q-2 -6 -2 -13v-13v-14q0 -7 2 -15h-147 q0 199 108.5 238.5t270.5 39.5q199 0 306 -55t107 -280v-623h-133l6 98q-61 -78 -144 -95t-177 -17q-176 0 -276.5 52t-100.5 249zM188 303q0 -125 51.5 -165t170.5 -40h43q23 0 45 2q86 4 157.5 38t71.5 141q0 129 -78 157.5t-186 28.5h-35h-39q-20 0 -41 -2 q-35 -4 -68.5 -13.5t-56.5 -29.5q-16 -12 -23 -32.5t-10 -43.5q-2 -10 -2 -20v-21zM301 1253l72 99l270 -205l-47 -74z" />
<glyph unicode="&#xe1;" horiz-adv-x="919" d="M39 287q0 190 105.5 239t267.5 49q23 0 47 -1t49 -3q37 -2 72.5 -9t68.5 -19q23 -8 39.5 -25.5t28.5 -40.5v115q0 176 -49.5 219t-225.5 43q-16 0 -38.5 -1t-43.5 -3q-31 -2 -57.5 -10.5t-44.5 -22.5q-20 -14 -28.5 -35.5t-10.5 -46.5q-2 -6 -2 -13v-13v-14q0 -7 2 -15 h-147q0 199 108.5 238.5t270.5 39.5q199 0 306 -55t107 -280v-623h-133l6 98q-61 -78 -144 -95t-177 -17q-176 0 -276.5 52t-100.5 249zM186 303q0 -125 51.5 -165t170.5 -40h43q23 0 45 2q86 4 157.5 38t71.5 141q0 129 -78 157.5t-186 28.5h-35h-39q-20 0 -41 -2 q-35 -4 -68.5 -13.5t-56.5 -29.5q-16 -12 -23.5 -32.5t-9.5 -43.5q-2 -10 -2 -20v-21zM299 1147l270 205l72 -99l-293 -180z" />
<glyph unicode="&#xe2;" horiz-adv-x="937" d="M49 287q0 190 105.5 239t267.5 49q23 0 47.5 -1t48.5 -3q37 -2 73 -9t68 -19q23 -8 39.5 -25.5t28.5 -40.5v115q0 176 -49 219t-225 43q-16 0 -39 -1t-43 -3q-31 -2 -57.5 -10.5t-45.5 -22.5q-20 -14 -28.5 -35.5t-10.5 -46.5q-2 -6 -2 -13v-13v-14q0 -7 2 -15h-147 q0 199 108.5 238.5t270.5 39.5q199 0 306 -55t107 -280v-623h-133l7 98q-61 -78 -144.5 -95t-177.5 -17q-176 0 -276.5 52t-100.5 249zM162 1145l321 194l314 -194l-43 -78l-271 125l-282 -125zM197 303q0 -125 51 -165t170 -40h43q23 0 45 2q86 4 157.5 38t71.5 141 q0 129 -77.5 157.5t-186.5 28.5h-35h-39q-20 0 -41 -2q-35 -4 -68.5 -13.5t-56.5 -29.5q-16 -12 -23 -32.5t-9 -43.5q-2 -10 -2 -20v-21z" />
<glyph unicode="&#xe3;" horiz-adv-x="944" d="M53 287q0 190 105.5 239t267.5 49q23 0 47.5 -1t48.5 -3q37 -2 73 -9t69 -19q23 -8 39 -25.5t28 -40.5v115q0 176 -49 219t-225 43q-16 0 -39 -1t-43 -3q-31 -2 -57.5 -10.5t-45.5 -22.5q-20 -14 -28 -35.5t-11 -46.5q-2 -6 -2 -13v-13v-14q0 -7 2 -15h-147 q0 199 108.5 238.5t270.5 39.5q199 0 306.5 -55t107.5 -280v-623h-134l7 98q-61 -78 -144.5 -95t-177.5 -17q-176 0 -276.5 52t-100.5 249zM174 1116q27 49 64.5 91t99.5 46q37 0 69.5 -12t65.5 -27q31 -16 63.5 -28t69.5 -12q33 0 57.5 20t41.5 45q4 4 6 7t4 7l78 -49 q0 -2 -1 -3l-4 -3q-31 -49 -75.5 -90t-108.5 -41q-35 0 -67.5 12.5t-63.5 26.5q-2 0 -4 1t-4 3q-31 12 -60.5 23.5t-62.5 11.5q-31 0 -48.5 -19.5t-31.5 -44.5q-2 -2 -3 -5t-3 -5zM201 303q0 -125 51 -165t170 -40h43q23 0 45 2q86 4 157.5 38t71.5 141q0 129 -77.5 157.5 t-186.5 28.5h-35h-39q-20 0 -41 -2q-35 -4 -68.5 -13.5t-55.5 -29.5q-16 -12 -23.5 -32.5t-9.5 -43.5q-2 -10 -2 -20v-21z" />
<glyph unicode="&#xe4;" horiz-adv-x="937" d="M49 287q0 190 105.5 239t267.5 49q23 0 47.5 -1t48.5 -3q37 -2 73 -9t68 -19q23 -8 39.5 -25.5t28.5 -40.5v115q0 176 -49 219t-225 43q-16 0 -39 -1t-43 -3q-31 -2 -57.5 -10.5t-45.5 -22.5q-20 -14 -28.5 -35.5t-10.5 -46.5q-2 -6 -2 -13v-13v-14q0 -7 2 -15h-147 q0 199 108.5 238.5t270.5 39.5q199 0 306 -55t107 -280v-623h-133l7 98q-61 -78 -144.5 -95t-177.5 -17q-176 0 -276.5 52t-100.5 249zM197 303q0 -125 51 -165t170 -40h43q23 0 45 2q86 4 157.5 38t71.5 141q0 129 -77.5 157.5t-186.5 28.5h-35h-39q-20 0 -41 -2 q-35 -4 -68.5 -13.5t-56.5 -29.5q-16 -12 -23 -32.5t-9 -43.5q-2 -10 -2 -20v-21zM217 1055v135h160v-135h-160zM580 1055v135h161v-135h-161z" />
<glyph unicode="&#xe5;" horiz-adv-x="925" d="M43 287q0 190 105.5 239t267.5 49q23 0 47 -1t49 -3q37 -2 73 -9t68 -19q23 -8 39.5 -25.5t28.5 -40.5v115q0 176 -49 219t-226 43q-16 0 -38.5 -1t-42.5 -3q-31 -2 -57.5 -10.5t-45.5 -22.5q-20 -14 -28.5 -35.5t-10.5 -46.5q-2 -6 -2 -13v-13v-14q0 -7 2 -15h-147 q0 199 108.5 238.5t270.5 39.5q199 0 306 -55t107 -280v-623h-133l6 98q-61 -78 -144 -95t-177 -17q-176 0 -276.5 52t-100.5 249zM190 303q0 -125 51.5 -165t170.5 -40h43q23 0 45 2q86 4 157.5 38t71.5 141q0 129 -78 157.5t-186 28.5h-35h-39q-20 0 -41 -2 q-35 -4 -68.5 -13.5t-56.5 -29.5q-16 -12 -23 -32.5t-9 -43.5q-2 -10 -3 -20v-21zM317 1182q0 63 47.5 109t110.5 46t109.5 -46t46.5 -109t-46 -110.5t-110 -47.5q-63 0 -110.5 47.5t-47.5 110.5zM385 1182q0 -37 26.5 -63.5t63.5 -26.5q35 0 61.5 26.5t26.5 63.5 q0 35 -26.5 61.5t-61.5 26.5q-37 0 -63.5 -26.5t-26.5 -61.5z" />
<glyph unicode="&#xe6;" horiz-adv-x="1654" d="M70 281q0 182 98 236t260 54q59 0 115.5 -3t111.5 -19q35 -10 57.5 -29.5t43.5 -46.5v162q0 164 -65.5 195.5t-217.5 31.5q-86 0 -153.5 -18.5t-67.5 -124.5v-23h-148q14 190 102.5 230.5t256.5 40.5h55q29 0 57 -2q49 -2 97.5 -11.5t93.5 -29.5q27 -10 42 -31t26 -47 q35 61 96 86.5t129 34.5q29 2 56.5 3t51.5 1q293 0 352.5 -124t59.5 -386h-680v-9v-12q0 -16 1 -33.5t1 -33.5q2 -45 7 -89t18 -87q12 -41 41.5 -59.5t68.5 -26.5q18 -2 38 -4.5t38 -2.5q18 -2 38 -2h38q102 0 174 20.5t72 141.5v25h147v-9q0 -5 2 -12v-9v-11 q0 -172 -114.5 -216t-251.5 -46h-23h-20h-25h-23q-98 4 -184 31.5t-125 127.5q-35 -90 -114.5 -120.5t-167.5 -34.5q-16 -2 -33 -2h-33q-166 0 -282.5 50t-116.5 243zM215 297q0 -143 72.5 -171t195.5 -28q106 0 190.5 30t84.5 157q0 10 -1 21t-3 22q-4 25 -14.5 49 t-30.5 39q-25 18 -61 26.5t-75 12.5q-33 2 -63.5 3t-54.5 1q-94 0 -167 -23.5t-73 -138.5zM897 582h541q-2 160 -47 219t-215 59h-43q-23 0 -46 -2q-37 -4 -72.5 -15.5t-62.5 -35.5q-29 -29 -39 -69t-12 -81q-2 -10 -2 -21v-22q0 -8 -1 -16t-1 -16z" />
<glyph unicode="&#xe7;" horiz-adv-x="907" d="M47 508q0 244 84 351.5t338 107.5q158 0 272.5 -51.5t114.5 -239.5v-8v-9q-2 -4 -2 -8v-8h-139q0 137 -57.5 173t-186.5 36q-186 0 -230 -68.5t-44 -257.5v-98q0 -162 36.5 -242t223.5 -80q160 0 217 38t57 202h141q0 -221 -91 -287.5t-310 -66.5q-303 0 -363.5 123 t-60.5 393zM324 -281l120 209l97 -55l-140 -195z" />
<glyph unicode="&#xe8;" horiz-adv-x="925" d="M47 455q0 250 61.5 383t346.5 133q268 0 347 -90t81 -357v-71h-688q0 -160 33.5 -256.5t226.5 -96.5h39h44q24 0 50 4q31 2 59.5 10.5t48.5 22.5t27.5 38t9.5 48q2 8 2 19v18v31h148q0 -211 -113 -256t-295 -45q-268 0 -348 102.5t-80 362.5zM197 563h542 q0 178 -42 237.5t-230 59.5q-166 0 -218 -61.5t-52 -235.5zM295 1253l72 99l270 -205l-47 -74z" />
<glyph unicode="&#xe9;" horiz-adv-x="927" d="M45 455q0 250 61.5 383t346.5 133q268 0 347 -90t81 -357v-71h-688q0 -160 33.5 -256.5t226.5 -96.5h39h44q24 0 50 4q31 2 59.5 10.5t48.5 22.5t27.5 38t9.5 48q2 8 2 19v18v31h148q0 -211 -113 -256t-295 -45q-268 0 -348 102.5t-80 362.5zM195 563h542 q0 178 -42 237.5t-230 59.5q-166 0 -218 -61.5t-52 -235.5zM293 1147l270 205l72 -99l-293 -180z" />
<glyph unicode="&#xea;" horiz-adv-x="944" d="M55 455q0 250 61.5 383t346.5 133q268 0 347 -90t81 -357v-71h-688q0 -160 33.5 -256.5t226.5 -96.5h39h44q24 0 50 4q31 2 59.5 10.5t49.5 22.5q20 14 27 38t9 48q2 8 2 19v18v31h148q0 -211 -112.5 -256t-295.5 -45q-268 0 -348 102.5t-80 362.5zM156 1145l321 194 l314 -194l-43 -78l-271 125l-282 -125zM205 563h543q0 178 -42 237.5t-231 59.5q-166 0 -218 -61.5t-52 -235.5z" />
<glyph unicode="&#xeb;" horiz-adv-x="944" d="M55 455q0 250 61.5 383t346.5 133q268 0 347 -90t81 -357v-71h-688q0 -160 33.5 -256.5t226.5 -96.5h39h44q24 0 50 4q31 2 59.5 10.5t49.5 22.5q20 14 27 38t9 48q2 8 2 19v18v31h148q0 -211 -112.5 -256t-295.5 -45q-268 0 -348 102.5t-80 362.5zM205 563h543 q0 178 -42 237.5t-231 59.5q-166 0 -218 -61.5t-52 -235.5zM211 1055v135h160v-135h-160zM573 1055v135h162v-135h-162z" />
<glyph unicode="&#xec;" horiz-adv-x="389" d="M27 1253l71 99l271 -205l-47 -74zM125 0v956h145v-956h-145z" />
<glyph unicode="&#xed;" horiz-adv-x="389" d="M18 1147l271 205l71 -99l-292 -180zM117 0v956h145v-956h-145z" />
<glyph unicode="&#xee;" horiz-adv-x="673" d="M18 1145l322 194l313 -194l-43 -78l-270 125l-283 -125zM262 0v956h146v-956h-146z" />
<glyph unicode="&#xef;" horiz-adv-x="626" d="M49 1053v135h160v-135h-160zM240 0v956h145v-956h-145zM412 1053v135h161v-135h-161z" />
<glyph unicode="&#xf0;" horiz-adv-x="1017" d="M45 481q0 197 111.5 343.5t322.5 146.5q14 0 27.5 -1t28.5 -3q55 -10 107 -36t91 -63q-6 12 -12 23.5t-14 23.5q-41 72 -87.5 129.5t-111.5 110.5q-12 10 -24.5 19.5t-24.5 19.5l-189 -139l-39 57l166 121q-45 27 -92 49.5t-96 38.5l29 61q23 -4 52 -14t60 -22l29 -13 l29 -12q18 -8 36.5 -17.5t30.5 -17.5l189 137l41 -55l-160 -115q207 -133 316.5 -314t109.5 -433q0 -211 -121 -372t-348 -161q-219 0 -338 151.5t-119 356.5zM193 449q6 -139 80.5 -255t232.5 -116q164 0 235.5 118.5t79.5 260.5q2 12 2 25v26v13v16q-6 133 -73.5 243.5 t-223.5 110.5q-176 0 -254.5 -126t-78.5 -288v-13v-15z" />
<glyph unicode="&#xf1;" horiz-adv-x="942" d="M68 0v956h133v-122q55 88 141 115.5t184 27.5q195 0 273 -75t78 -269v-633h-146v621q0 143 -45 190t-190 47q-137 0 -211 -63.5t-74 -208.5v-586h-143zM164 1116q27 49 64.5 91t99.5 46q37 0 69.5 -12t65.5 -27q31 -16 63.5 -28t69.5 -12q33 0 57.5 20t40.5 45q4 4 6 7 t5 7l77 -49q0 -2 -1 -3l-3 -3q-31 -49 -76 -90t-108 -41q-35 0 -67.5 12.5t-63.5 26.5q-2 0 -4 1t-4 3q-31 12 -60.5 23.5t-62.5 11.5q-31 0 -48.5 -19.5t-31.5 -44.5q-2 -2 -3 -5t-3 -5z" />
<glyph unicode="&#xf2;" horiz-adv-x="937" d="M47 414v90q0 244 73 356.5t335 112.5q274 0 356 -95.5t82 -365.5q0 -236 -50 -381t-345 -145q-256 0 -353.5 80t-97.5 348zM195 382q0 -24 2 -46q4 -59 16 -112.5t39 -82.5q23 -20 55.5 -28.5t69.5 -10.5h15h16h65q125 0 191.5 35t74.5 170q2 29 3 55.5t1 55.5q2 27 2 54 v54q0 176 -32.5 252t-208.5 76h-31q-186 0 -232 -57.5t-46 -259.5v-31v-80v-44zM299 1253l72 99l270 -205l-47 -74z" />
<glyph unicode="&#xf3;" horiz-adv-x="940" d="M45 414v90q0 244 72.5 356.5t335.5 112.5q274 0 356 -95.5t82 -365.5q0 -236 -50 -381t-345 -145q-256 0 -353.5 80t-97.5 348zM193 382q0 -24 2 -46q4 -59 16 -112.5t39 -82.5q23 -20 55.5 -28.5t69.5 -10.5h15h16h65q125 0 191.5 35t74.5 170q2 29 3 55.5t1 55.5 q2 27 2 54v54q0 176 -32.5 252t-208.5 76h-31q-186 0 -232 -57.5t-46 -259.5v-31v-80v-44zM297 1147l270 205l72 -99l-293 -180z" />
<glyph unicode="&#xf4;" horiz-adv-x="956" d="M55 414v90q0 244 73 356.5t335 112.5q274 0 356 -95.5t82 -365.5q0 -236 -50 -381t-345 -145q-256 0 -353.5 80t-97.5 348zM162 1145l321 194l314 -194l-43 -78l-271 125l-282 -125zM203 382q0 -24 2 -46q4 -59 16 -112.5t39 -82.5q23 -20 55.5 -28.5t69.5 -10.5h15h16 h65q125 0 191.5 35t75.5 170q2 29 3 55.5t1 55.5q2 27 2 54v54q0 176 -33 252t-209 76h-31q-186 0 -232 -57.5t-46 -259.5v-31v-80v-44z" />
<glyph unicode="&#xf5;" horiz-adv-x="962" d="M57 414v90q0 244 73 356.5t335 112.5q274 0 356 -95.5t82 -365.5q0 -236 -50 -381t-345 -145q-256 0 -353.5 80t-97.5 348zM172 1116q27 49 64.5 91t99.5 46q37 0 69.5 -12t65.5 -27q31 -16 63.5 -28t69.5 -12q33 0 57.5 20t40.5 45q4 4 6.5 7t4.5 7l78 -49q0 -2 -1 -3 l-4 -3q-31 -49 -75.5 -90t-108.5 -41q-35 0 -67.5 12.5t-63.5 26.5q-2 0 -4 1t-4 3q-31 12 -60.5 23.5t-62.5 11.5q-31 0 -48.5 -19.5t-31.5 -44.5q-2 -2 -3 -5t-3 -5zM205 382q0 -24 2 -46q4 -59 16.5 -112.5t38.5 -82.5q23 -20 55.5 -28.5t69.5 -10.5h15h16h65 q125 0 191.5 35t75.5 170q2 29 3 55.5t1 55.5q2 27 2 54v54q0 176 -33 252t-209 76h-31q-186 0 -232 -57.5t-46 -259.5v-31v-80v-44z" />
<glyph unicode="&#xf6;" horiz-adv-x="960" d="M57 414v90q0 244 73 356.5t335 112.5q274 0 356 -95.5t82 -365.5q0 -236 -50 -381t-345 -145q-256 0 -353.5 80t-97.5 348zM205 382q0 -24 2 -46q4 -59 16.5 -112.5t38.5 -82.5q23 -20 55.5 -28.5t69.5 -10.5h15h16h65q125 0 191.5 35t75.5 170q2 29 3 55.5t1 55.5 q2 27 2 54v54q0 176 -33 252t-209 76h-31q-186 0 -232 -57.5t-46 -259.5v-31v-80v-44zM219 1055v135h160v-135h-160zM582 1055v135h161v-135h-161z" />
<glyph unicode="&#xf7;" horiz-adv-x="946" d="M8 655v84h930v-84h-930zM393 319q0 33 23.5 56.5t56.5 23.5t56.5 -23.5t23.5 -56.5t-23.5 -56t-56.5 -23t-56.5 23t-23.5 56zM393 1075q0 33 23.5 56.5t56.5 23.5t56.5 -23.5t23.5 -56.5t-23.5 -56.5t-56.5 -23.5t-56.5 23.5t-23.5 56.5z" />
<glyph unicode="&#xf8;" horiz-adv-x="1062" d="M74 -33v127l76 70q-8 20 -14.5 39.5t-10.5 40.5q-4 35 -7 68.5t-3 68.5q-2 33 -2 68v67q0 250 74.5 354.5t332.5 104.5h39q20 0 39 -2q80 -2 154.5 -20.5t134.5 -75.5l104 100v-127l-67 -64q23 -51 27.5 -105t4.5 -110v-86v-41q0 -20 -2 -43q-2 -61 -10 -123.5 t-29 -121.5q-35 -100 -118.5 -130t-178.5 -34q-23 -2 -44 -2h-44q-31 0 -63.5 1t-67.5 5q-59 6 -115.5 25.5t-95.5 60.5zM256 442q0 -20 1 -40.5t3 -41.5q0 -20 3 -40.5t5 -40.5l516 499q-8 16 -21 30.5t-32 22.5q-33 14 -67.5 18.5t-71.5 6.5h-18h-17h-55 q-137 0 -183.5 -38t-56.5 -200q-2 -43 -4 -87t-2 -89zM289 176q18 -35 57 -49t82 -18q20 -2 39.5 -3.5t38.5 -1.5q170 0 229.5 43t69.5 213q4 37 5 74t1 74q0 41 -2 83t-8 81z" />
<glyph unicode="&#xf9;" horiz-adv-x="899" d="M53 319v637h146v-637q0 -125 43 -170t174 -45q170 0 227 63.5t57 225.5v563h146v-956h-133v127q-61 -92 -140 -115.5t-188 -23.5q-172 0 -252 79.5t-80 251.5zM279 1251l71 99l271 -205l-48 -74z" />
<glyph unicode="&#xfa;" horiz-adv-x="899" d="M49 319v637h146v-637q0 -125 43 -170t174 -45q170 0 227 63.5t57 225.5v563h146v-956h-133v127q-61 -92 -140.5 -115.5t-187.5 -23.5q-172 0 -252 79.5t-80 251.5zM274 1145l271 205l71 -99l-292 -180z" />
<glyph unicode="&#xfb;" horiz-adv-x="919" d="M61 319v637h146v-637q0 -125 43 -170t174 -45q170 0 227.5 63.5t57.5 225.5v563h145v-956h-133v127q-61 -92 -140 -115.5t-188 -23.5q-172 0 -252 79.5t-80 251.5zM139 1145l322 194l313 -194l-43 -78l-270 125l-283 -125z" />
<glyph unicode="&#xfc;" horiz-adv-x="923" d="M63 319v637h146v-637q0 -125 43 -170t174 -45q170 0 227.5 63.5t57.5 225.5v563h145v-956h-133v127q-61 -92 -140 -115.5t-188 -23.5q-172 0 -252 79.5t-80 251.5zM197 1053v135h159v-135h-159zM559 1053v135h162v-135h-162z" />
<glyph unicode="&#xfd;" horiz-adv-x="851" d="M16 956h146l299 -852l217 852h147l-270 -1011q-4 -12 -7 -26.5t-7 -29.5q-35 -121 -101.5 -220t-210.5 -99q-16 0 -33.5 3t-33.5 7v115q6 0 13 -1t13 -1q6 -2 14 -2h13q74 0 112 58t56 128q10 35 17.5 66.5t13.5 56.5h-52zM371 1147l270 205l72 -99l-293 -180z" />
<glyph unicode="&#xfe;" horiz-adv-x="1013" d="M80 -336v1700h139v-612q55 119 140 187.5t223 68.5q215 0 319.5 -160t104.5 -354v-6v-7q-2 -193 -105.5 -351.5t-320.5 -158.5q-119 0 -216.5 63.5t-138.5 174.5l-2 -545h-143zM221 455q8 -139 81 -256t235 -117q176 0 248.5 127t72.5 280v17v16q-8 137 -83 251t-230 114 q-156 0 -236 -116t-88 -255v-15v-14v-16v-16z" />
<glyph unicode="&#xff;" horiz-adv-x="862" d="M27 956h145l299 -852l217 852h148l-271 -1011q-4 -12 -7 -26.5t-7 -29.5q-35 -121 -101.5 -220t-209.5 -99q-16 0 -34 3t-34 7v115q6 0 13.5 -1t13.5 -1q6 -2 13 -2h13q74 0 112 58t56 128q10 35 17.5 66.5t13.5 56.5h-51zM170 1053v135h160v-135h-160zM532 1053v135h162 v-135h-162z" />
<glyph unicode="&#x152;" horiz-adv-x="2004" d="M74 494v36q0 18 2 37v36v34v225q2 317 129 412.5t426 95.5h65q33 0 68 -2q33 -2 65.5 -5t65.5 -9q66 -14 111 -44t77 -89v139h869v-139h-721v-447h690v-137h-690v-496h721v-135h-869v135q-43 -74 -119.5 -105.5t-158.5 -39.5q-25 -2 -49.5 -3t-48.5 -1q-303 0 -468 75 t-165 427zM227 547q0 -176 36 -294t249 -128q33 -2 65 -2h64q231 0 328.5 45t103.5 293v211l4 209q0 238 -77.5 295t-303.5 57h-145q-219 0 -270.5 -93t-51.5 -309v-70v-71q-2 -37 -2 -73v-70z" />
<glyph unicode="&#x153;" horiz-adv-x="1669" d="M74 492q0 262 73.5 369.5t352.5 107.5h47q25 0 49 -2q43 -2 84 -10.5t80 -24.5q35 -14 54.5 -40t27.5 -61q33 74 100.5 102t140.5 34q27 2 51.5 3t49.5 1q223 0 317 -80t94 -311v-117h-675v-13v-14q-2 -6 -2 -13v-13q0 -154 36.5 -230t208.5 -76h54q115 0 177 31t62 156 h141q0 -199 -96 -250t-284 -51l-13 -2q-25 2 -50.5 2t-51.5 2q-78 4 -149.5 28.5t-110.5 100.5q-35 -80 -105.5 -104.5t-148.5 -28.5q-20 -2 -41 -2h-41q-147 0 -267 41t-149 213q-8 63 -12 126t-4 126zM223 428q0 -184 38 -257t231 -73h18q18 0 44 1t52 3q35 6 67 16.5 t48 31.5q23 27 33 74.5t14 101.5q2 27 2 52v48v72q0 27 -1 62.5t-3 72.5q-4 51 -15.5 99t-33.5 73q-18 23 -52 31t-71 10q-12 2 -25 2h-24h-90h-30q-15 0 -30 -2q-39 -2 -73.5 -13.5t-53.5 -37.5q-18 -25 -27.5 -69t-13.5 -91q-2 -35 -3 -67.5t-1 -57.5v-21v-61zM915 582 h537q-6 164 -43 219t-223 55q-168 0 -218.5 -55t-52.5 -219z" />
<glyph unicode="&#x178;" horiz-adv-x="1200" d="M14 1366h179l405 -639l406 639h182l-516 -795v-571h-154v571zM338 1483v135h160v-135h-160zM700 1483v135h162v-135h-162z" />
<glyph unicode="&#x2c6;" horiz-adv-x="737" d="M59 1116q27 49 65 91t99 46q37 0 70 -12t65 -27q31 -16 64 -28t70 -12q33 0 57 20t41 45q4 4 6 7t4 7l78 -49q0 -2 -1 -3l-3 -3q-31 -49 -76 -90t-109 -41q-35 0 -67.5 12.5t-63.5 26.5q-2 0 -4 1t-4 3q-31 12 -60.5 23.5t-62.5 11.5q-31 0 -48 -19.5t-32 -44.5 q-2 -2 -3 -5t-3 -5z" />
<glyph unicode="&#x2dc;" horiz-adv-x="710" d="M37 1145l321 194l314 -194l-43 -78l-271 125l-282 -125z" />
<glyph unicode="&#x2000;" horiz-adv-x="876" />
<glyph unicode="&#x2001;" horiz-adv-x="1755" />
<glyph unicode="&#x2002;" horiz-adv-x="876" />
<glyph unicode="&#x2003;" horiz-adv-x="1755" />
<glyph unicode="&#x2004;" horiz-adv-x="583" />
<glyph unicode="&#x2005;" horiz-adv-x="438" />
<glyph unicode="&#x2006;" horiz-adv-x="290" />
<glyph unicode="&#x2007;" horiz-adv-x="290" />
<glyph unicode="&#x2008;" horiz-adv-x="219" />
<glyph unicode="&#x2009;" horiz-adv-x="350" />
<glyph unicode="&#x200a;" horiz-adv-x="96" />
<glyph unicode="&#x2010;" d="M80 432v133h475v-133h-475z" />
<glyph unicode="&#x2011;" d="M80 432v133h475v-133h-475z" />
<glyph unicode="&#x2012;" d="M80 432v133h475v-133h-475z" />
<glyph unicode="&#x2013;" horiz-adv-x="1253" d="M80 432v133h1091v-133h-1091z" />
<glyph unicode="&#x2014;" horiz-adv-x="1587" d="M80 432v133h1427v-133h-1427z" />
<glyph unicode="&#x2018;" horiz-adv-x="321" d="M70 1006v200q0 84 25.5 135.5t115.5 51.5h11h9q4 -2 10 -2h11v-78q-51 -2 -70.5 -23.5t-19.5 -72.5v-7q0 -4 2 -6v-7v-7h67v-184h-161z" />
<glyph unicode="&#x2019;" horiz-adv-x="323" d="M68 981v76q53 4 71.5 25.5t18.5 72.5v12q0 6 -2 13h-68v186h162v-201q0 -82 -25.5 -134t-115.5 -52h-12q-5 0 -9 2h-9h-11z" />
<glyph unicode="&#x201a;" horiz-adv-x="321" d="M68 -123q53 4 71.5 25.5t18.5 74.5v13q0 6 -2 10h-68v186h162v-200q0 -82 -25.5 -133.5t-115.5 -51.5h-12h-9q-4 2 -9 2h-11v74z" />
<glyph unicode="&#x201c;" horiz-adv-x="620" d="M76 1006v200q0 84 25.5 135.5t115.5 51.5h11h10q4 -2 9 -2h11v-78q-51 -2 -70.5 -23.5t-19.5 -72.5v-7q0 -4 2 -6v-7v-7h68v-184h-162zM362 1006v200q0 84 26 135.5t116 51.5h11h9q4 -2 10 -2h11v-78q-51 -2 -70.5 -23.5t-19.5 -72.5v-7q0 -4 2 -6v-7v-7h67v-184h-162z " />
<glyph unicode="&#x201d;" horiz-adv-x="622" d="M76 981v76q53 4 71.5 25.5t18.5 72.5v12q0 6 -2 13h-68v186h162v-201q0 -82 -25.5 -134t-115.5 -52h-12q-5 0 -9 2h-9h-11zM362 981v76q53 4 72 25.5t19 72.5v12q0 6 -2 13h-68v186h162v-201q0 -82 -25.5 -134t-116.5 -52h-11q-5 0 -9 2h-9h-12z" />
<glyph unicode="&#x201e;" horiz-adv-x="622" d="M76 -123q53 4 71.5 25.5t18.5 74.5v13q0 6 -2 10h-68v186h162v-200q0 -82 -25.5 -133.5t-115.5 -51.5h-12h-9q-4 2 -9 2h-11v74zM362 -123q53 4 72 25.5t19 74.5v13q0 6 -2 10h-68v186h162v-200q0 -82 -25.5 -133.5t-116.5 -51.5h-11h-9q-4 2 -9 2h-12v74z" />
<glyph unicode="&#x2022;" horiz-adv-x="512" d="M57 586q0 82 57.5 139t139.5 57q84 0 142.5 -57t58.5 -139t-58.5 -139.5t-142.5 -57.5q-82 0 -139.5 57.5t-57.5 139.5z" />
<glyph unicode="&#x2026;" horiz-adv-x="1138" d="M80 0v186h162v-186h-162zM487 0v186h162v-186h-162zM895 0v186h162v-186h-162z" />
<glyph unicode="&#x202f;" horiz-adv-x="350" />
<glyph unicode="&#x2039;" horiz-adv-x="440" d="M12 526l246 521l104 -64l-215 -457l240 -460l-100 -66z" />
<glyph unicode="&#x203a;" horiz-adv-x="438" d="M51 66l238 460l-215 457l106 64l246 -521l-276 -526z" />
<glyph unicode="&#x205f;" horiz-adv-x="438" />
<glyph unicode="&#x20ac;" horiz-adv-x="1454" d="M33 492v81h1020v-81h-1020zM33 772v84h1020v-84h-1020zM293 598v15v16v27v28v213q0 195 68.5 316.5t279.5 144.5q33 4 66.5 7t66.5 5t67 2h66q274 0 360.5 -76.5t100.5 -357.5h-151q0 154 -37 225.5t-207 71.5q-72 0 -144.5 -2t-144.5 -8q-152 -10 -191.5 -91t-39.5 -227 v-24l2 -219v-72q0 -33 1 -69t3 -72q4 -68 14 -129.5t35 -106.5q25 -43 76 -61.5t108 -22.5q23 -2 45.5 -3t42.5 -1q66 0 130.5 1t127.5 7q90 8 140.5 43t54.5 131v38v40q-2 18 -2 38v38h151q0 -14 1 -30.5t1 -31.5q0 -16 1 -31.5t1 -31.5q0 -150 -70.5 -238t-230.5 -100 q-55 -4 -110 -5t-111 -1l-190 -2q-281 18 -330 203.5t-51 402.5z" />
<glyph unicode="&#x2122;" horiz-adv-x="1845" d="M55 1268v98h662v-98h-273v-721h-112v721h-277zM821 547v819h176l293 -676l295 676h180v-819h-112v708l-307 -708h-107l-309 702v-702h-109z" />
<glyph unicode="&#xe000;" horiz-adv-x="955" d="M0 955h955v-955h-955v955z" />
<glyph unicode="&#xfb01;" horiz-adv-x="997" d="M37 944v131h164v129q0 98 17.5 164t57 105.5t106.5 57t165 17.5q25 0 50.5 -1t49.5 -3v-131q-25 2 -50.5 3t-49.5 1q-61 0 -97 -10t-55.5 -33.5t-26 -61.5t-6.5 -91v-146h285v-131h-285v-944h-161v944h-164zM762 0v1075h162v-1075h-162zM762 1358v178h162v-178h-162z" />
<glyph unicode="&#xfb02;" horiz-adv-x="1013" d="M37 944v131h164v129q0 98 17.5 164t57 105.5t106.5 57t165 17.5q25 0 50.5 -1t49.5 -3v-131q-25 2 -50.5 3t-49.5 1q-61 0 -97 -10t-55.5 -33.5t-26 -61.5t-6.5 -91v-146h285v-131h-285v-944h-161v944h-164zM770 0v1536h162v-1536h-162z" />
<glyph unicode="&#xfb03;" horiz-adv-x="1460" d="M1239 0v956h145v-956h-145zM1239 1208v158h145v-158h-145zM609 840v116h145v142q0 166 75.5 225t231.5 59q12 0 23.5 -1t21.5 -1t21.5 -1t23.5 -1v-118q-27 4 -52 4h-52q-84 0 -116 -38t-32 -116v-154h252v-116h-252v-840h-145v840h-145zM23 840v116h145v142 q0 166 75.5 225t231.5 59q12 0 23.5 -1t21.5 -1t21.5 -1t23.5 -1v-118q-27 4 -52 4h-52q-84 0 -116 -38t-32 -116v-154h252v-116h-252v-840h-145v840h-145z" />
<glyph unicode="&#xfb04;" horiz-adv-x="1484" d="M1251 0v1366h145v-1366h-145zM609 840v116h145v142q0 166 75.5 225t231.5 59q12 0 23.5 -1t21.5 -1t21.5 -1t23.5 -1v-118q-27 4 -52 4h-52q-84 0 -116 -38t-32 -116v-154h252v-116h-252v-840h-145v840h-145zM23 840v116h145v142q0 166 75.5 225t231.5 59q12 0 23.5 -1 t21.5 -1t21.5 -1t23.5 -1v-118q-27 4 -52 4h-52q-84 0 -116 -38t-32 -116v-154h252v-116h-252v-840h-145v840h-145z" />
</font>
</defs>
</svg>
